{
  "accessors": [
    {
      "name": "b_pulley_wheel_001_-Mesh_0_positions",
      "componentType": 5126,
      "count": 1337,
      "min": [
        21,
        -2.5,
        -1
      ],
      "max": [
        51,
        2.5,
        29
      ],
      "type": "VEC3",
      "bufferView": 0,
      "byteOffset": 0
    },
    {
      "name": "b_pulley_wheel_001_-Mesh_0_indices",
      "componentType": 5123,
      "count": 8070,
      "min": [
        0
      ],
      "max": [
        1336
      ],
      "type": "SCALAR",
      "bufferView": 1,
      "byteOffset": 0
    },
    {
      "name": "b_pulley_bars_001_001-Mesh_0_positions",
      "componentType": 5126,
      "count": 63,
      "min": [
        8.02916431427002,
        2.5,
        10
      ],
      "max": [
        39.97083282470703,
        7.5,
        18
      ],
      "type": "VEC3",
      "bufferView": 0,
      "byteOffset": 16044
    },
    {
      "name": "b_pulley_bars_001_001-Mesh_0_indices",
      "componentType": 5123,
      "count": 324,
      "min": [
        0
      ],
      "max": [
        62
      ],
      "type": "SCALAR",
      "bufferView": 1,
      "byteOffset": 16140
    },
    {
      "name": "b_pulley_bars_001_-Mesh_0_positions",
      "componentType": 5126,
      "count": 63,
      "min": [
        8.02916431427002,
        -7.5,
        10
      ],
      "max": [
        39.97083282470703,
        -2.5,
        18
      ],
      "type": "VEC3",
      "bufferView": 0,
      "byteOffset": 16800
    },
    {
      "name": "b_pulley_bars_001_-Mesh_0_indices",
      "componentType": 5123,
      "count": 324,
      "min": [
        0
      ],
      "max": [
        62
      ],
      "type": "SCALAR",
      "bufferView": 1,
      "byteOffset": 16788
    },
    {
      "name": "b_pulley_rail_support_001_-Mesh_0_positions",
      "componentType": 5126,
      "count": 96,
      "min": [
        0,
        -12.5,
        -8.041044235229492
      ],
      "max": [
        24,
        12.5,
        17.9998779296875
      ],
      "type": "VEC3",
      "bufferView": 0,
      "byteOffset": 17556
    },
    {
      "name": "b_pulley_rail_support_001_-Mesh_0_indices",
      "componentType": 5123,
      "count": 468,
      "min": [
        0
      ],
      "max": [
        95
      ],
      "type": "SCALAR",
      "bufferView": 1,
      "byteOffset": 17436
    }
  ],
  "asset": {
    "generator": "obj2gltf",
    "version": "2.0"
  },
  "buffers": [
    {
      "name": "pulley",
      "byteLength": 37080,
      "uri": "data:application/octet-stream;base64,"
    }
  ],
  "bufferViews": [
    {
      "name": "bufferView_0",
      "buffer": 0,
      "byteLength": 18708,
      "byteOffset": 0,
      "byteStride": 12,
      "target": 34962
    },
    {
      "name": "bufferView_1",
      "buffer": 0,
      "byteLength": 18372,
      "byteOffset": 18708,
      "target": 34963
    }
  ],
  "materials": [
    {
      "name": "color_cccccc",
      "pbrMetallicRoughness": {
        "baseColorFactor": [
          0.800000011920929,
          0.800000011920929,
          0.800000011920929,
          1
        ],
        "metallicFactor": 0,
        "roughnessFactor": 1
      },
      "emissiveFactor": [
        0,
        0,
        0
      ],
      "alphaMode": "OPAQUE",
      "doubleSided": false
    },
    {
      "name": "color_757575",
      "pbrMetallicRoughness": {
        "baseColorFactor": [
          0.4588235318660736,
          0.4588235318660736,
          0.4588235318660736,
          1
        ],
        "metallicFactor": 0,
        "roughnessFactor": 1
      },
      "emissiveFactor": [
        0,
        0,
        0
      ],
      "alphaMode": "OPAQUE",
      "doubleSided": false
    },
    {
      "name": "color_ed8637",
      "pbrMetallicRoughness": {
        "baseColorFactor": [
          0.929411768913269,
          0.5254902243614197,
          0.21568627655506134,
          1
        ],
        "metallicFactor": 0,
        "roughnessFactor": 1
      },
      "emissiveFactor": [
        0,
        0,
        0
      ],
      "alphaMode": "OPAQUE",
      "doubleSided": false
    }
  ],
  "meshes": [
    {
      "name": "b_pulley_wheel_001_-Mesh",
      "primitives": [
        {
          "attributes": {
            "POSITION": 0
          },
          "indices": 1,
          "material": 0,
          "mode": 4
        }
      ]
    },
    {
      "name": "b_pulley_bars_001_001-Mesh",
      "primitives": [
        {
          "attributes": {
            "POSITION": 2
          },
          "indices": 3,
          "material": 1,
          "mode": 4
        }
      ]
    },
    {
      "name": "b_pulley_bars_001_-Mesh",
      "primitives": [
        {
          "attributes": {
            "POSITION": 4
          },
          "indices": 5,
          "material": 1,
          "mode": 4
        }
      ]
    },
    {
      "name": "b_pulley_rail_support_001_-Mesh",
      "primitives": [
        {
          "attributes": {
            "POSITION": 6
          },
          "indices": 7,
          "material": 2,
          "mode": 4
        }
      ]
    }
  ],
  "nodes": [
    {
      "name": "b_pulley_wheel_001_",
      "mesh": 0
    },
    {
      "name": "b_pulley_bars_001_001",
      "mesh": 1
    },
    {
      "name": "b_pulley_bars_001_",
      "mesh": 2
    },
    {
      "name": "b_pulley_rail_support_001_",
      "mesh": 3
    }
  ],
  "scene": 0,
  "scenes": [
    {
      "nodes": [
        0,
        1,
        2,
        3
      ]
    }
  ]
}
