{
  "accessors": [
    {
      "name": "b_car_body_001_-Mesh_0_positions",
      "componentType": 5126,
      "count": 114,
      "min": [
        -100,
        6,
        -30
      ],
      "max": [
        0,
        41,
        30
      ],
      "type": "VEC3",
      "bufferView": 0,
      "byteOffset": 0
    },
    {
      "name": "b_car_body_001_-Mesh_0_indices",
      "componentType": 5123,
      "count": 696,
      "min": [
        0
      ],
      "max": [
        113
      ],
      "type": "SCALAR",
      "bufferView": 1,
      "byteOffset": 0
    },
    {
      "name": "b_car_axle_001_001-Mesh_0_positions",
      "componentType": 5126,
      "count": 156,
      "min": [
        -89.03932189941406,
        9.159491539001465,
        -34
      ],
      "max": [
        -83.03932189941406,
        15.115744590759277,
        34
      ],
      "type": "VEC3",
      "bufferView": 0,
      "byteOffset": 1368
    },
    {
      "name": "b_car_axle_001_001-Mesh_0_indices",
      "componentType": 5123,
      "count": 924,
      "min": [
        0
      ],
      "max": [
        155
      ],
      "type": "SCALAR",
      "bufferView": 1,
      "byteOffset": 1392
    },
    {
      "name": "b_car_wheel_001_-Mesh_0_positions",
      "componentType": 5126,
      "count": 191,
      "min": [
        -25.927030563354492,
        -0.04782100021839142,
        -34
      ],
      "max": [
        -1.9702609777450562,
        23.930553436279297,
        -30
      ],
      "type": "VEC3",
      "bufferView": 0,
      "byteOffset": 3240
    },
    {
      "name": "b_car_wheel_001_-Mesh_0_indices",
      "componentType": 5123,
      "count": 1128,
      "min": [
        0
      ],
      "max": [
        190
      ],
      "type": "SCALAR",
      "bufferView": 1,
      "byteOffset": 3240
    },
    {
      "name": "b_car_wheel_001_003-Mesh_0_positions",
      "componentType": 5126,
      "count": 189,
      "min": [
        -97.92703247070312,
        -0.04782100021839142,
        -34
      ],
      "max": [
        -73.97026062011719,
        23.930553436279297,
        -30
      ],
      "type": "VEC3",
      "bufferView": 0,
      "byteOffset": 5532
    },
    {
      "name": "b_car_wheel_001_003-Mesh_0_indices",
      "componentType": 5123,
      "count": 1128,
      "min": [
        0
      ],
      "max": [
        188
      ],
      "type": "SCALAR",
      "bufferView": 1,
      "byteOffset": 5496
    },
    {
      "name": "b_car_axle_001_-Mesh_0_positions",
      "componentType": 5126,
      "count": 156,
      "min": [
        -17.039321899414062,
        9.159491539001465,
        -34
      ],
      "max": [
        -11.039320945739746,
        15.115744590759277,
        34
      ],
      "type": "VEC3",
      "bufferView": 0,
      "byteOffset": 7800
    },
    {
      "name": "b_car_axle_001_-Mesh_0_indices",
      "componentType": 5123,
      "count": 924,
      "min": [
        0
      ],
      "max": [
        155
      ],
      "type": "SCALAR",
      "bufferView": 1,
      "byteOffset": 7752
    },
    {
      "name": "b_car_wheel_001_002-Mesh_0_positions",
      "componentType": 5126,
      "count": 188,
      "min": [
        -98.02973937988281,
        -0.04782100021839142,
        30
      ],
      "max": [
        -74.07296752929688,
        23.930553436279297,
        34
      ],
      "type": "VEC3",
      "bufferView": 0,
      "byteOffset": 9672
    },
    {
      "name": "b_car_wheel_001_002-Mesh_0_indices",
      "componentType": 5123,
      "count": 1128,
      "min": [
        0
      ],
      "max": [
        187
      ],
      "type": "SCALAR",
      "bufferView": 1,
      "byteOffset": 9600
    },
    {
      "name": "b_car_wheel_001_001-Mesh_0_positions",
      "componentType": 5126,
      "count": 188,
      "min": [
        -26.029739379882812,
        -0.04782100021839142,
        30
      ],
      "max": [
        -2.0729689598083496,
        23.930553436279297,
        34
      ],
      "type": "VEC3",
      "bufferView": 0,
      "byteOffset": 11928
    },
    {
      "name": "b_car_wheel_001_001-Mesh_0_indices",
      "componentType": 5123,
      "count": 1128,
      "min": [
        0
      ],
      "max": [
        187
      ],
      "type": "SCALAR",
      "bufferView": 1,
      "byteOffset": 11856
    }
  ],
  "asset": {
    "generator": "obj2gltf",
    "version": "2.0"
  },
  "buffers": [
    {
      "name": "car",
      "byteLength": 28296,
      "uri": "data:application/octet-stream;base64,"
    }
  ],
  "bufferViews": [
    {
      "name": "bufferView_0",
      "buffer": 0,
      "byteLength": 14184,
      "byteOffset": 0,
      "byteStride": 12,
      "target": 34962
    },
    {
      "name": "bufferView_1",
      "buffer": 0,
      "byteLength": 14112,
      "byteOffset": 14184,
      "target": 34963
    }
  ],
  "materials": [
    {
      "name": "color_82bbcc",
      "pbrMetallicRoughness": {
        "baseColorFactor": [
          0.5098039507865906,
          0.7333333492279053,
          0.800000011920929,
          1
        ],
        "metallicFactor": 0,
        "roughnessFactor": 1
      },
      "emissiveFactor": [
        0,
        0,
        0
      ],
      "alphaMode": "OPAQUE",
      "doubleSided": false
    },
    {
      "name": "color_242424",
      "pbrMetallicRoughness": {
        "baseColorFactor": [
          0.1411764770746231,
          0.1411764770746231,
          0.1411764770746231,
          1
        ],
        "metallicFactor": 0,
        "roughnessFactor": 1
      },
      "emissiveFactor": [
        0,
        0,
        0
      ],
      "alphaMode": "OPAQUE",
      "doubleSided": false
    },
    {
      "name": "color_cccccc",
      "pbrMetallicRoughness": {
        "baseColorFactor": [
          0.800000011920929,
          0.800000011920929,
          0.800000011920929,
          1
        ],
        "metallicFactor": 0,
        "roughnessFactor": 1
      },
      "emissiveFactor": [
        0,
        0,
        0
      ],
      "alphaMode": "OPAQUE",
      "doubleSided": false
    }
  ],
  "meshes": [
    {
      "name": "b_car_body_001_-Mesh",
      "primitives": [
        {
          "attributes": {
            "POSITION": 0
          },
          "indices": 1,
          "material": 0,
          "mode": 4
        }
      ]
    },
    {
      "name": "b_car_axle_001_001-Mesh",
      "primitives": [
        {
          "attributes": {
            "POSITION": 2
          },
          "indices": 3,
          "material": 1,
          "mode": 4
        }
      ]
    },
    {
      "name": "b_car_wheel_001_-Mesh",
      "primitives": [
        {
          "attributes": {
            "POSITION": 4
          },
          "indices": 5,
          "material": 2,
          "mode": 4
        }
      ]
    },
    {
      "name": "b_car_wheel_001_003-Mesh",
      "primitives": [
        {
          "attributes": {
            "POSITION": 6
          },
          "indices": 7,
          "material": 2,
          "mode": 4
        }
      ]
    },
    {
      "name": "b_car_axle_001_-Mesh",
      "primitives": [
        {
          "attributes": {
            "POSITION": 8
          },
          "indices": 9,
          "material": 1,
          "mode": 4
        }
      ]
    },
    {
      "name": "b_car_wheel_001_002-Mesh",
      "primitives": [
        {
          "attributes": {
            "POSITION": 10
          },
          "indices": 11,
          "material": 2,
          "mode": 4
        }
      ]
    },
    {
      "name": "b_car_wheel_001_001-Mesh",
      "primitives": [
        {
          "attributes": {
            "POSITION": 12
          },
          "indices": 13,
          "material": 2,
          "mode": 4
        }
      ]
    }
  ],
  "nodes": [
    {
      "name": "b_car_body_001_",
      "mesh": 0
    },
    {
      "name": "b_car_axle_001_001",
      "mesh": 1
    },
    {
      "name": "b_car_wheel_001_",
      "mesh": 2
    },
    {
      "name": "b_car_wheel_001_003",
      "mesh": 3
    },
    {
      "name": "b_car_axle_001_",
      "mesh": 4
    },
    {
      "name": "b_car_wheel_001_002",
      "mesh": 5
    },
    {
      "name": "b_car_wheel_001_001",
      "mesh": 6
    }
  ],
  "scene": 0,
  "scenes": [
    {
      "nodes": [
        0,
        1,
        2,
        3,
        4,
        5,
        6
      ]
    }
  ]
}
