{
  "accessors": [
    {
      "name": "b_body_001_-Mesh_0_positions",
      "componentType": 5126,
      "count": 114,
      "min": [
        -100,
        0,
        -30
      ],
      "max": [
        0,
        40,
        30
      ],
      "type": "VEC3",
      "bufferView": 0,
      "byteOffset": 0
    },
    {
      "name": "b_body_001_-Mesh_0_indices",
      "componentType": 5123,
      "count": 696,
      "min": [
        0
      ],
      "max": [
        113
      ],
      "type": "SCALAR",
      "bufferView": 1,
      "byteOffset": 0
    },
    {
      "name": "b_wheel_001_001-Mesh_0_positions",
      "componentType": 5126,
      "count": 188,
      "min": [
        -98.02973937988281,
        -6.047820091247559,
        30
      ],
      "max": [
        -74.07296752929688,
        17.93055534362793,
        34
      ],
      "type": "VEC3",
      "bufferView": 0,
      "byteOffset": 1368
    },
    {
      "name": "b_wheel_001_001-Mesh_0_indices",
      "componentType": 5123,
      "count": 1128,
      "min": [
        0
      ],
      "max": [
        187
      ],
      "type": "SCALAR",
      "bufferView": 1,
      "byteOffset": 1392
    },
    {
      "name": "b_wheel_001_002-Mesh_0_positions",
      "componentType": 5126,
      "count": 188,
      "min": [
        -97.92703247070312,
        -6.047820091247559,
        -34
      ],
      "max": [
        -73.97026062011719,
        17.93055534362793,
        -30
      ],
      "type": "VEC3",
      "bufferView": 0,
      "byteOffset": 3624
    },
    {
      "name": "b_wheel_001_002-Mesh_0_indices",
      "componentType": 5123,
      "count": 1128,
      "min": [
        0
      ],
      "max": [
        187
      ],
      "type": "SCALAR",
      "bufferView": 1,
      "byteOffset": 3648
    },
    {
      "name": "b_axle_001_-Mesh_0_positions",
      "componentType": 5126,
      "count": 182,
      "min": [
        -17,
        3.0218729972839355,
        -34.00000762939453
      ],
      "max": [
        -11,
        8.978126525878906,
        33.99999237060547
      ],
      "type": "VEC3",
      "bufferView": 0,
      "byteOffset": 5880
    },
    {
      "name": "b_axle_001_-Mesh_0_indices",
      "componentType": 5123,
      "count": 924,
      "min": [
        0
      ],
      "max": [
        181
      ],
      "type": "SCALAR",
      "bufferView": 1,
      "byteOffset": 5904
    },
    {
      "name": "b_wheel_001_003-Mesh_0_positions",
      "componentType": 5126,
      "count": 188,
      "min": [
        -25.927030563354492,
        -6.047820091247559,
        -34
      ],
      "max": [
        -1.9702609777450562,
        17.93055534362793,
        -30
      ],
      "type": "VEC3",
      "bufferView": 0,
      "byteOffset": 8064
    },
    {
      "name": "b_wheel_001_003-Mesh_0_indices",
      "componentType": 5123,
      "count": 1128,
      "min": [
        0
      ],
      "max": [
        187
      ],
      "type": "SCALAR",
      "bufferView": 1,
      "byteOffset": 7752
    },
    {
      "name": "b_wheel_001_-Mesh_0_positions",
      "componentType": 5126,
      "count": 188,
      "min": [
        -26.029739379882812,
        -6.047820091247559,
        30
      ],
      "max": [
        -2.0729689598083496,
        17.93055534362793,
        34
      ],
      "type": "VEC3",
      "bufferView": 0,
      "byteOffset": 10320
    },
    {
      "name": "b_wheel_001_-Mesh_0_indices",
      "componentType": 5123,
      "count": 1128,
      "min": [
        0
      ],
      "max": [
        187
      ],
      "type": "SCALAR",
      "bufferView": 1,
      "byteOffset": 10008
    },
    {
      "name": "b_axle_001_001-Mesh_0_positions",
      "componentType": 5126,
      "count": 207,
      "min": [
        -89,
        3.0218729972839355,
        -34
      ],
      "max": [
        -83,
        8.978126525878906,
        34
      ],
      "type": "VEC3",
      "bufferView": 0,
      "byteOffset": 12576
    },
    {
      "name": "b_axle_001_001-Mesh_0_indices",
      "componentType": 5123,
      "count": 924,
      "min": [
        0
      ],
      "max": [
        206
      ],
      "type": "SCALAR",
      "bufferView": 1,
      "byteOffset": 12264
    }
  ],
  "asset": {
    "generator": "obj2gltf",
    "version": "2.0"
  },
  "buffers": [
    {
      "name": "car",
      "byteLength": 29172,
      "uri": "data:application/octet-stream;base64,"
    }
  ],
  "bufferViews": [
    {
      "name": "bufferView_0",
      "buffer": 0,
      "byteLength": 15060,
      "byteOffset": 0,
      "byteStride": 12,
      "target": 34962
    },
    {
      "name": "bufferView_1",
      "buffer": 0,
      "byteLength": 14112,
      "byteOffset": 15060,
      "target": 34963
    }
  ],
  "materials": [
    {
      "name": "color_2e46cc",
      "pbrMetallicRoughness": {
        "baseColorFactor": [
          0.18039216101169586,
          0.27450981736183167,
          0.800000011920929,
          1
        ],
        "metallicFactor": 0,
        "roughnessFactor": 1
      },
      "emissiveFactor": [
        0,
        0,
        0
      ],
      "alphaMode": "OPAQUE",
      "doubleSided": false
    },
    {
      "name": "color_b0b0b0",
      "pbrMetallicRoughness": {
        "baseColorFactor": [
          0.6901960968971252,
          0.6901960968971252,
          0.6901960968971252,
          1
        ],
        "metallicFactor": 0,
        "roughnessFactor": 1
      },
      "emissiveFactor": [
        0,
        0,
        0
      ],
      "alphaMode": "OPAQUE",
      "doubleSided": false
    },
    {
      "name": "color_666666",
      "pbrMetallicRoughness": {
        "baseColorFactor": [
          0.4000000059604645,
          0.4000000059604645,
          0.4000000059604645,
          1
        ],
        "metallicFactor": 0,
        "roughnessFactor": 1
      },
      "emissiveFactor": [
        0,
        0,
        0
      ],
      "alphaMode": "OPAQUE",
      "doubleSided": false
    }
  ],
  "meshes": [
    {
      "name": "b_body_001_-Mesh",
      "primitives": [
        {
          "attributes": {
            "POSITION": 0
          },
          "indices": 1,
          "material": 0,
          "mode": 4
        }
      ]
    },
    {
      "name": "b_wheel_001_001-Mesh",
      "primitives": [
        {
          "attributes": {
            "POSITION": 2
          },
          "indices": 3,
          "material": 1,
          "mode": 4
        }
      ]
    },
    {
      "name": "b_wheel_001_002-Mesh",
      "primitives": [
        {
          "attributes": {
            "POSITION": 4
          },
          "indices": 5,
          "material": 1,
          "mode": 4
        }
      ]
    },
    {
      "name": "b_axle_001_-Mesh",
      "primitives": [
        {
          "attributes": {
            "POSITION": 6
          },
          "indices": 7,
          "material": 2,
          "mode": 4
        }
      ]
    },
    {
      "name": "b_wheel_001_003-Mesh",
      "primitives": [
        {
          "attributes": {
            "POSITION": 8
          },
          "indices": 9,
          "material": 1,
          "mode": 4
        }
      ]
    },
    {
      "name": "b_wheel_001_-Mesh",
      "primitives": [
        {
          "attributes": {
            "POSITION": 10
          },
          "indices": 11,
          "material": 1,
          "mode": 4
        }
      ]
    },
    {
      "name": "b_axle_001_001-Mesh",
      "primitives": [
        {
          "attributes": {
            "POSITION": 12
          },
          "indices": 13,
          "material": 2,
          "mode": 4
        }
      ]
    }
  ],
  "nodes": [
    {
      "name": "b_body_001_",
      "mesh": 0
    },
    {
      "name": "b_wheel_001_001",
      "mesh": 1
    },
    {
      "name": "b_wheel_001_002",
      "mesh": 2
    },
    {
      "name": "b_axle_001_",
      "mesh": 3
    },
    {
      "name": "b_wheel_001_003",
      "mesh": 4
    },
    {
      "name": "b_wheel_001_",
      "mesh": 5
    },
    {
      "name": "b_axle_001_001",
      "mesh": 6
    }
  ],
  "scene": 0,
  "scenes": [
    {
      "nodes": [
        0,
        1,
        2,
        3,
        4,
        5,
        6
      ]
    }
  ]
}
