{
  "accessors": [
    {
      "name": "b_car_wheel_001_002-Mesh_0_positions",
      "componentType": 5126,
      "count": 136,
      "min": [
        -25.956769943237305,
        0.010812000371515751,
        30
      ],
      "max": [
        -2,
        23.989187240600586,
        34
      ],
      "type": "VEC3",
      "bufferView": 0,
      "byteOffset": 0
    },
    {
      "name": "b_car_wheel_001_002-Mesh_0_indices",
      "componentType": 5123,
      "count": 804,
      "min": [
        0
      ],
      "max": [
        135
      ],
      "type": "SCALAR",
      "bufferView": 1,
      "byteOffset": 0
    },
    {
      "name": "b_car_wheel_001_003-Mesh_0_positions",
      "componentType": 5126,
      "count": 136,
      "min": [
        -26,
        0.010812000371515751,
        -34
      ],
      "max": [
        -2.0432300567626953,
        23.989187240600586,
        -30
      ],
      "type": "VEC3",
      "bufferView": 0,
      "byteOffset": 1632
    },
    {
      "name": "b_car_wheel_001_003-Mesh_0_indices",
      "componentType": 5123,
      "count": 804,
      "min": [
        0
      ],
      "max": [
        135
      ],
      "type": "SCALAR",
      "bufferView": 1,
      "byteOffset": 1608
    },
    {
      "name": "b_car_wheel_001_-Mesh_0_positions",
      "componentType": 5126,
      "count": 137,
      "min": [
        -98,
        0.010812000371515751,
        -34
      ],
      "max": [
        -74.04322814941406,
        23.989187240600586,
        -30
      ],
      "type": "VEC3",
      "bufferView": 0,
      "byteOffset": 3264
    },
    {
      "name": "b_car_wheel_001_-Mesh_0_indices",
      "componentType": 5123,
      "count": 804,
      "min": [
        0
      ],
      "max": [
        136
      ],
      "type": "SCALAR",
      "bufferView": 1,
      "byteOffset": 3216
    },
    {
      "name": "b_car_wheel_001_001-Mesh_0_positions",
      "componentType": 5126,
      "count": 136,
      "min": [
        -97.95677185058594,
        0.010812000371515751,
        30
      ],
      "max": [
        -74,
        23.989187240600586,
        34
      ],
      "type": "VEC3",
      "bufferView": 0,
      "byteOffset": 4908
    },
    {
      "name": "b_car_wheel_001_001-Mesh_0_indices",
      "componentType": 5123,
      "count": 804,
      "min": [
        0
      ],
      "max": [
        135
      ],
      "type": "SCALAR",
      "bufferView": 1,
      "byteOffset": 4824
    },
    {
      "name": "b_car_body_001_-Mesh_0_positions",
      "componentType": 5126,
      "count": 10,
      "min": [
        -100,
        6,
        -30
      ],
      "max": [
        0,
        41,
        30
      ],
      "type": "VEC3",
      "bufferView": 0,
      "byteOffset": 6540
    },
    {
      "name": "b_car_body_001_-Mesh_0_indices",
      "componentType": 5123,
      "count": 48,
      "min": [
        0
      ],
      "max": [
        9
      ],
      "type": "SCALAR",
      "bufferView": 1,
      "byteOffset": 6432
    }
  ],
  "asset": {
    "generator": "obj2gltf",
    "version": "2.0"
  },
  "buffers": [
    {
      "name": "car",
      "byteLength": 13188,
      "uri": "data:application/octet-stream;base64,"
    }
  ],
  "bufferViews": [
    {
      "name": "bufferView_0",
      "buffer": 0,
      "byteLength": 6660,
      "byteOffset": 0,
      "byteStride": 12,
      "target": 34962
    },
    {
      "name": "bufferView_1",
      "buffer": 0,
      "byteLength": 6528,
      "byteOffset": 6660,
      "target": 34963
    }
  ],
  "materials": [
    {
      "name": "color_7a7a7a",
      "pbrMetallicRoughness": {
        "baseColorFactor": [
          0.47843137383461,
          0.47843137383461,
          0.47843137383461,
          80
        ],
        "metallicFactor": 0,
        "roughnessFactor": 1
      },
      "emissiveFactor": [
        0,
        0,
        0
      ],
      "alphaMode": "OPAQUE",
      "doubleSided": false
    },
    {
      "name": "color_9accb5",
      "pbrMetallicRoughness": {
        "baseColorFactor": [
          0.6039215922355652,
          0.800000011920929,
          0.7098039388656616,
          80
        ],
        "metallicFactor": 0,
        "roughnessFactor": 1
      },
      "emissiveFactor": [
        0,
        0,
        0
      ],
      "alphaMode": "OPAQUE",
      "doubleSided": false
    }
  ],
  "meshes": [
    {
      "name": "b_car_wheel_001_002-Mesh",
      "primitives": [
        {
          "attributes": {
            "POSITION": 0
          },
          "indices": 1,
          "material": 0,
          "mode": 4
        }
      ]
    },
    {
      "name": "b_car_wheel_001_003-Mesh",
      "primitives": [
        {
          "attributes": {
            "POSITION": 2
          },
          "indices": 3,
          "material": 0,
          "mode": 4
        }
      ]
    },
    {
      "name": "b_car_wheel_001_-Mesh",
      "primitives": [
        {
          "attributes": {
            "POSITION": 4
          },
          "indices": 5,
          "material": 0,
          "mode": 4
        }
      ]
    },
    {
      "name": "b_car_wheel_001_001-Mesh",
      "primitives": [
        {
          "attributes": {
            "POSITION": 6
          },
          "indices": 7,
          "material": 0,
          "mode": 4
        }
      ]
    },
    {
      "name": "b_car_body_001_-Mesh",
      "primitives": [
        {
          "attributes": {
            "POSITION": 8
          },
          "indices": 9,
          "material": 1,
          "mode": 4
        }
      ]
    }
  ],
  "nodes": [
    {
      "name": "b_car_wheel_001_002",
      "mesh": 0
    },
    {
      "name": "b_car_wheel_001_003",
      "mesh": 1
    },
    {
      "name": "b_car_wheel_001_",
      "mesh": 2
    },
    {
      "name": "b_car_wheel_001_001",
      "mesh": 3
    },
    {
      "name": "b_car_body_001_",
      "mesh": 4
    }
  ],
  "scene": 0,
  "scenes": [
    {
      "nodes": [
        0,
        1,
        2,
        3,
        4
      ]
    }
  ]
}
