{
  "accessors": [
    {
      "name": "b_cup_body_straight_001_-Mesh_0_positions",
      "componentType": 5126,
      "count": 352,
      "min": [
        -41.5,
        -41.44673538208008,
        0
      ],
      "max": [
        41.287078857421875,
        41.44673538208008,
        105
      ],
      "type": "VEC3",
      "bufferView": 0,
      "byteOffset": 0
    },
    {
      "name": "b_cup_body_straight_001_-Mesh_0_indices",
      "componentType": 5123,
      "count": 2100,
      "min": [
        0
      ],
      "max": [
        351
      ],
      "type": "SCALAR",
      "bufferView": 1,
      "byteOffset": 0
    },
    {
      "name": "b_cup_lid_001_-Mesh_0_positions",
      "componentType": 5126,
      "count": 128,
      "min": [
        -39,
        -38.86679458618164,
        105
      ],
      "max": [
        39,
        38.86679458618164,
        110
      ],
      "type": "VEC3",
      "bufferView": 0,
      "byteOffset": 4224
    },
    {
      "name": "b_cup_lid_001_-Mesh_0_indices",
      "componentType": 5123,
      "count": 768,
      "min": [
        0
      ],
      "max": [
        127
      ],
      "type": "SCALAR",
      "bufferView": 1,
      "byteOffset": 4200
    },
    {
      "name": "b_cup_termometer_001_-Mesh_0_positions",
      "componentType": 5126,
      "count": 214,
      "min": [
        -3,
        -2.9781270027160645,
        50
      ],
      "max": [
        3,
        2.9781270027160645,
        350
      ],
      "type": "VEC3",
      "bufferView": 0,
      "byteOffset": 5760
    },
    {
      "name": "b_cup_termometer_001_-Mesh_0_indices",
      "componentType": 5123,
      "count": 1272,
      "min": [
        0
      ],
      "max": [
        213
      ],
      "type": "SCALAR",
      "bufferView": 1,
      "byteOffset": 5736
    }
  ],
  "asset": {
    "generator": "obj2gltf",
    "version": "2.0"
  },
  "buffers": [
    {
      "name": "cup",
      "byteLength": 16608,
      "uri": "data:application/octet-stream;base64,"
    }
  ],
  "bufferViews": [
    {
      "name": "bufferView_0",
      "buffer": 0,
      "byteLength": 8328,
      "byteOffset": 0,
      "byteStride": 12,
      "target": 34962
    },
    {
      "name": "bufferView_1",
      "buffer": 0,
      "byteLength": 8280,
      "byteOffset": 8328,
      "target": 34963
    }
  ],
  "materials": [
    {
      "name": "color_cccccc",
      "pbrMetallicRoughness": {
        "baseColorFactor": [
          0.800000011920929,
          0.800000011920929,
          0.800000011920929,
          1
        ],
        "metallicFactor": 0,
        "roughnessFactor": 1
      },
      "emissiveFactor": [
        0,
        0,
        0
      ],
      "alphaMode": "OPAQUE",
      "doubleSided": false
    },
    {
      "name": "color_adc4cc",
      "pbrMetallicRoughness": {
        "baseColorFactor": [
          0.6784313917160034,
          0.7686274647712708,
          0.800000011920929,
          1
        ],
        "metallicFactor": 0,
        "roughnessFactor": 1
      },
      "emissiveFactor": [
        0,
        0,
        0
      ],
      "alphaMode": "OPAQUE",
      "doubleSided": false
    }
  ],
  "meshes": [
    {
      "name": "b_cup_body_straight_001_-Mesh",
      "primitives": [
        {
          "attributes": {
            "POSITION": 0
          },
          "indices": 1,
          "material": 0,
          "mode": 4
        }
      ]
    },
    {
      "name": "b_cup_lid_001_-Mesh",
      "primitives": [
        {
          "attributes": {
            "POSITION": 2
          },
          "indices": 3,
          "material": 0,
          "mode": 4
        }
      ]
    },
    {
      "name": "b_cup_termometer_001_-Mesh",
      "primitives": [
        {
          "attributes": {
            "POSITION": 4
          },
          "indices": 5,
          "material": 1,
          "mode": 4
        }
      ]
    }
  ],
  "nodes": [
    {
      "name": "b_cup_body_straight_001_",
      "mesh": 0
    },
    {
      "name": "b_cup_lid_001_",
      "mesh": 1
    },
    {
      "name": "b_cup_termometer_001_",
      "mesh": 2
    }
  ],
  "scene": 0,
  "scenes": [
    {
      "nodes": [
        0,
        1,
        2
      ]
    }
  ]
}
