{
  "accessors": [
    {
      "name": "b_scale_hot_plate_001_-Mesh_0_positions",
      "componentType": 5126,
      "count": 216,
      "min": [
        -60,
        -50,
        48
      ],
      "max": [
        60,
        70,
        58
      ],
      "type": "VEC3",
      "bufferView": 0,
      "byteOffset": 0
    },
    {
      "name": "b_scale_hot_plate_001_-Mesh_0_indices",
      "componentType": 5123,
      "count": 1164,
      "min": [
        0
      ],
      "max": [
        215
      ],
      "type": "SCALAR",
      "bufferView": 1,
      "byteOffset": 0
    },
    {
      "name": "b_scale_standoffs_001_-Mesh_0_positions",
      "componentType": 5126,
      "count": 70,
      "min": [
        72.53018951416016,
        72.50755310058594,
        -8
      ],
      "max": [
        87.5,
        87.49244689941406,
        0
      ],
      "type": "VEC3",
      "bufferView": 0,
      "byteOffset": 2592
    },
    {
      "name": "b_scale_standoffs_001_-Mesh_0_indices",
      "componentType": 5123,
      "count": 408,
      "min": [
        0
      ],
      "max": [
        69
      ],
      "type": "SCALAR",
      "bufferView": 1,
      "byteOffset": 2328
    },
    {
      "name": "b_scale_standoffs_001_003-Mesh_0_positions",
      "componentType": 5126,
      "count": 94,
      "min": [
        72.53018951416016,
        -87.49244689941406,
        -8
      ],
      "max": [
        87.5,
        -72.50755310058594,
        0
      ],
      "type": "VEC3",
      "bufferView": 0,
      "byteOffset": 3432
    },
    {
      "name": "b_scale_standoffs_001_003-Mesh_0_indices",
      "componentType": 5123,
      "count": 408,
      "min": [
        0
      ],
      "max": [
        93
      ],
      "type": "SCALAR",
      "bufferView": 1,
      "byteOffset": 3144
    },
    {
      "name": "b_scale_standoffs_001_002-Mesh_0_positions",
      "componentType": 5126,
      "count": 94,
      "min": [
        -87.46981048583984,
        -87.49244689941406,
        -8
      ],
      "max": [
        -72.5,
        -72.50755310058594,
        0
      ],
      "type": "VEC3",
      "bufferView": 0,
      "byteOffset": 4560
    },
    {
      "name": "b_scale_standoffs_001_002-Mesh_0_indices",
      "componentType": 5123,
      "count": 408,
      "min": [
        0
      ],
      "max": [
        93
      ],
      "type": "SCALAR",
      "bufferView": 1,
      "byteOffset": 3960
    },
    {
      "name": "b_scale_standoffs_001_001-Mesh_0_positions",
      "componentType": 5126,
      "count": 94,
      "min": [
        -87.46981048583984,
        72.50755310058594,
        -8
      ],
      "max": [
        -72.5,
        87.49244689941406,
        0
      ],
      "type": "VEC3",
      "bufferView": 0,
      "byteOffset": 5688
    },
    {
      "name": "b_scale_standoffs_001_001-Mesh_0_indices",
      "componentType": 5123,
      "count": 408,
      "min": [
        0
      ],
      "max": [
        93
      ],
      "type": "SCALAR",
      "bufferView": 1,
      "byteOffset": 4776
    },
    {
      "name": "b_scale_standoffs_001_006-Mesh_0_positions",
      "componentType": 5126,
      "count": 73,
      "min": [
        -57.46980667114258,
        -37.49244689941406,
        40
      ],
      "max": [
        -42.5,
        -22.507551193237305,
        48
      ],
      "type": "VEC3",
      "bufferView": 0,
      "byteOffset": 6816
    },
    {
      "name": "b_scale_standoffs_001_006-Mesh_0_indices",
      "componentType": 5123,
      "count": 408,
      "min": [
        0
      ],
      "max": [
        72
      ],
      "type": "SCALAR",
      "bufferView": 1,
      "byteOffset": 5592
    },
    {
      "name": "b_scale_standoffs_001_004-Mesh_0_positions",
      "componentType": 5126,
      "count": 70,
      "min": [
        42.53019332885742,
        42.50755310058594,
        40
      ],
      "max": [
        57.5,
        57.49244689941406,
        48
      ],
      "type": "VEC3",
      "bufferView": 0,
      "byteOffset": 7692
    },
    {
      "name": "b_scale_standoffs_001_004-Mesh_0_indices",
      "componentType": 5123,
      "count": 408,
      "min": [
        0
      ],
      "max": [
        69
      ],
      "type": "SCALAR",
      "bufferView": 1,
      "byteOffset": 6408
    },
    {
      "name": "b_scale_standoffs_001_005-Mesh_0_positions",
      "componentType": 5126,
      "count": 73,
      "min": [
        42.53019332885742,
        -37.49244689941406,
        40
      ],
      "max": [
        57.5,
        -22.507551193237305,
        48
      ],
      "type": "VEC3",
      "bufferView": 0,
      "byteOffset": 8532
    },
    {
      "name": "b_scale_standoffs_001_005-Mesh_0_indices",
      "componentType": 5123,
      "count": 408,
      "min": [
        0
      ],
      "max": [
        72
      ],
      "type": "SCALAR",
      "bufferView": 1,
      "byteOffset": 7224
    },
    {
      "name": "b_scale_standoffs_001_007-Mesh_0_positions",
      "componentType": 5126,
      "count": 73,
      "min": [
        -57.46980667114258,
        42.50755310058594,
        40
      ],
      "max": [
        -42.5,
        57.49244689941406,
        48
      ],
      "type": "VEC3",
      "bufferView": 0,
      "byteOffset": 9408
    },
    {
      "name": "b_scale_standoffs_001_007-Mesh_0_indices",
      "componentType": 5123,
      "count": 408,
      "min": [
        0
      ],
      "max": [
        72
      ],
      "type": "SCALAR",
      "bufferView": 1,
      "byteOffset": 8040
    },
    {
      "name": "b_scale_body_2_001_-Mesh_0_positions",
      "componentType": 5126,
      "count": 35,
      "min": [
        -100,
        -100,
        0
      ],
      "max": [
        100,
        100,
        40
      ],
      "type": "VEC3",
      "bufferView": 0,
      "byteOffset": 10284
    },
    {
      "name": "b_scale_body_2_001_-Mesh_0_indices",
      "componentType": 5123,
      "count": 96,
      "min": [
        0
      ],
      "max": [
        34
      ],
      "type": "SCALAR",
      "bufferView": 1,
      "byteOffset": 8856
    }
  ],
  "asset": {
    "generator": "obj2gltf",
    "version": "2.0"
  },
  "buffers": [
    {
      "name": "scale",
      "byteLength": 19752,
      "uri": "data:application/octet-stream;base64,"
    }
  ],
  "bufferViews": [
    {
      "name": "bufferView_0",
      "buffer": 0,
      "byteLength": 10704,
      "byteOffset": 0,
      "byteStride": 12,
      "target": 34962
    },
    {
      "name": "bufferView_1",
      "buffer": 0,
      "byteLength": 9048,
      "byteOffset": 10704,
      "target": 34963
    }
  ],
  "materials": [
    {
      "name": "color_efefef",
      "pbrMetallicRoughness": {
        "baseColorFactor": [
          0.9372549057006836,
          0.9372549057006836,
          0.9372549057006836,
          1
        ],
        "metallicFactor": 0,
        "roughnessFactor": 1
      },
      "emissiveFactor": [
        0,
        0,
        0
      ],
      "alphaMode": "OPAQUE",
      "doubleSided": false
    },
    {
      "name": "color_444444",
      "pbrMetallicRoughness": {
        "baseColorFactor": [
          0.2666666805744171,
          0.2666666805744171,
          0.2666666805744171,
          1
        ],
        "metallicFactor": 0,
        "roughnessFactor": 1
      },
      "emissiveFactor": [
        0,
        0,
        0
      ],
      "alphaMode": "OPAQUE",
      "doubleSided": false
    },
    {
      "name": "color_e5e1ff",
      "pbrMetallicRoughness": {
        "baseColorFactor": [
          0.8980392217636108,
          0.8823529481887817,
          1,
          1
        ],
        "metallicFactor": 0,
        "roughnessFactor": 1
      },
      "emissiveFactor": [
        0,
        0,
        0
      ],
      "alphaMode": "OPAQUE",
      "doubleSided": false
    },
    {
      "name": "color_cccccc",
      "pbrMetallicRoughness": {
        "baseColorFactor": [
          0.800000011920929,
          0.800000011920929,
          0.800000011920929,
          1
        ],
        "metallicFactor": 0,
        "roughnessFactor": 1
      },
      "emissiveFactor": [
        0,
        0,
        0
      ],
      "alphaMode": "OPAQUE",
      "doubleSided": false
    }
  ],
  "meshes": [
    {
      "name": "b_scale_hot_plate_001_-Mesh",
      "primitives": [
        {
          "attributes": {
            "POSITION": 0
          },
          "indices": 1,
          "material": 0,
          "mode": 4
        }
      ]
    },
    {
      "name": "b_scale_standoffs_001_-Mesh",
      "primitives": [
        {
          "attributes": {
            "POSITION": 2
          },
          "indices": 3,
          "material": 1,
          "mode": 4
        }
      ]
    },
    {
      "name": "b_scale_standoffs_001_003-Mesh",
      "primitives": [
        {
          "attributes": {
            "POSITION": 4
          },
          "indices": 5,
          "material": 1,
          "mode": 4
        }
      ]
    },
    {
      "name": "b_scale_standoffs_001_002-Mesh",
      "primitives": [
        {
          "attributes": {
            "POSITION": 6
          },
          "indices": 7,
          "material": 1,
          "mode": 4
        }
      ]
    },
    {
      "name": "b_scale_standoffs_001_001-Mesh",
      "primitives": [
        {
          "attributes": {
            "POSITION": 8
          },
          "indices": 9,
          "material": 1,
          "mode": 4
        }
      ]
    },
    {
      "name": "b_scale_standoffs_001_006-Mesh",
      "primitives": [
        {
          "attributes": {
            "POSITION": 10
          },
          "indices": 11,
          "material": 2,
          "mode": 4
        }
      ]
    },
    {
      "name": "b_scale_standoffs_001_004-Mesh",
      "primitives": [
        {
          "attributes": {
            "POSITION": 12
          },
          "indices": 13,
          "material": 2,
          "mode": 4
        }
      ]
    },
    {
      "name": "b_scale_standoffs_001_005-Mesh",
      "primitives": [
        {
          "attributes": {
            "POSITION": 14
          },
          "indices": 15,
          "material": 2,
          "mode": 4
        }
      ]
    },
    {
      "name": "b_scale_standoffs_001_007-Mesh",
      "primitives": [
        {
          "attributes": {
            "POSITION": 16
          },
          "indices": 17,
          "material": 2,
          "mode": 4
        }
      ]
    },
    {
      "name": "b_scale_body_2_001_-Mesh",
      "primitives": [
        {
          "attributes": {
            "POSITION": 18
          },
          "indices": 19,
          "material": 3,
          "mode": 4
        }
      ]
    }
  ],
  "nodes": [
    {
      "name": "b_scale_hot_plate_001_",
      "mesh": 0
    },
    {
      "name": "b_scale_standoffs_001_",
      "mesh": 1
    },
    {
      "name": "b_scale_standoffs_001_003",
      "mesh": 2
    },
    {
      "name": "b_scale_standoffs_001_002",
      "mesh": 3
    },
    {
      "name": "b_scale_standoffs_001_001",
      "mesh": 4
    },
    {
      "name": "b_scale_standoffs_001_006",
      "mesh": 5
    },
    {
      "name": "b_scale_standoffs_001_004",
      "mesh": 6
    },
    {
      "name": "b_scale_standoffs_001_005",
      "mesh": 7
    },
    {
      "name": "b_scale_standoffs_001_007",
      "mesh": 8
    },
    {
      "name": "b_scale_body_2_001_",
      "mesh": 9
    }
  ],
  "scene": 0,
  "scenes": [
    {
      "nodes": [
        0,
        1,
        2,
        3,
        4,
        5,
        6,
        7,
        8,
        9
      ]
    }
  ]
}
