{
  "accessors": [
    {
      "name": "b_cannon_support_pin_001_001-Mesh_0_positions",
      "componentType": 5126,
      "count": 8,
      "min": [
        -10,
        -45,
        50
      ],
      "max": [
        -5,
        -40,
        55
      ],
      "type": "VEC3",
      "bufferView": 0,
      "byteOffset": 0
    },
    {
      "name": "b_cannon_support_pin_001_001-Mesh_0_indices",
      "componentType": 5123,
      "count": 36,
      "min": [
        0
      ],
      "max": [
        7
      ],
      "type": "SCALAR",
      "bufferView": 1,
      "byteOffset": 0
    },
    {
      "name": "b_cannon_support_pin_001_-Mesh_0_positions",
      "componentType": 5126,
      "count": 8,
      "min": [
        -10,
        40,
        50
      ],
      "max": [
        -5,
        45,
        55
      ],
      "type": "VEC3",
      "bufferView": 0,
      "byteOffset": 96
    },
    {
      "name": "b_cannon_support_pin_001_-Mesh_0_indices",
      "componentType": 5123,
      "count": 36,
      "min": [
        0
      ],
      "max": [
        7
      ],
      "type": "SCALAR",
      "bufferView": 1,
      "byteOffset": 72
    },
    {
      "name": "b_cannon_wheel_001_001-Mesh_0_positions",
      "componentType": 5126,
      "count": 73,
      "min": [
        25,
        40,
        -15
      ],
      "max": [
        55,
        50,
        15
      ],
      "type": "VEC3",
      "bufferView": 0,
      "byteOffset": 192
    },
    {
      "name": "b_cannon_wheel_001_001-Mesh_0_indices",
      "componentType": 5123,
      "count": 420,
      "min": [
        0
      ],
      "max": [
        72
      ],
      "type": "SCALAR",
      "bufferView": 1,
      "byteOffset": 144
    },
    {
      "name": "b_cannon_wheel_001_002-Mesh_0_positions",
      "componentType": 5126,
      "count": 73,
      "min": [
        -55,
        -50,
        -15
      ],
      "max": [
        -25,
        -40,
        15
      ],
      "type": "VEC3",
      "bufferView": 0,
      "byteOffset": 1068
    },
    {
      "name": "b_cannon_wheel_001_002-Mesh_0_indices",
      "componentType": 5123,
      "count": 420,
      "min": [
        0
      ],
      "max": [
        72
      ],
      "type": "SCALAR",
      "bufferView": 1,
      "byteOffset": 984
    },
    {
      "name": "b_cannon_wheel_001_003-Mesh_0_positions",
      "componentType": 5126,
      "count": 73,
      "min": [
        25,
        -50,
        -15
      ],
      "max": [
        55,
        -40,
        15
      ],
      "type": "VEC3",
      "bufferView": 0,
      "byteOffset": 1944
    },
    {
      "name": "b_cannon_wheel_001_003-Mesh_0_indices",
      "componentType": 5123,
      "count": 420,
      "min": [
        0
      ],
      "max": [
        72
      ],
      "type": "SCALAR",
      "bufferView": 1,
      "byteOffset": 1824
    },
    {
      "name": "b_cannon_support_001_001-Mesh_0_positions",
      "componentType": 5126,
      "count": 8,
      "min": [
        -50,
        -40,
        10
      ],
      "max": [
        0,
        -30,
        60
      ],
      "type": "VEC3",
      "bufferView": 0,
      "byteOffset": 2820
    },
    {
      "name": "b_cannon_support_001_001-Mesh_0_indices",
      "componentType": 5123,
      "count": 36,
      "min": [
        0
      ],
      "max": [
        7
      ],
      "type": "SCALAR",
      "bufferView": 1,
      "byteOffset": 2664
    },
    {
      "name": "b_cannon_wheel_pin_001_001-Mesh_0_positions",
      "componentType": 5126,
      "count": 73,
      "min": [
        35,
        50,
        -5
      ],
      "max": [
        45,
        53,
        5
      ],
      "type": "VEC3",
      "bufferView": 0,
      "byteOffset": 2916
    },
    {
      "name": "b_cannon_wheel_pin_001_001-Mesh_0_indices",
      "componentType": 5123,
      "count": 420,
      "min": [
        0
      ],
      "max": [
        72
      ],
      "type": "SCALAR",
      "bufferView": 1,
      "byteOffset": 2736
    },
    {
      "name": "b_cannon_wheel_pin_001_003-Mesh_0_positions",
      "componentType": 5126,
      "count": 73,
      "min": [
        35,
        -53,
        -5
      ],
      "max": [
        45,
        -50,
        5
      ],
      "type": "VEC3",
      "bufferView": 0,
      "byteOffset": 3792
    },
    {
      "name": "b_cannon_wheel_pin_001_003-Mesh_0_indices",
      "componentType": 5123,
      "count": 420,
      "min": [
        0
      ],
      "max": [
        72
      ],
      "type": "SCALAR",
      "bufferView": 1,
      "byteOffset": 3576
    },
    {
      "name": "b_cannon_wheel_pin_001_002-Mesh_0_positions",
      "componentType": 5126,
      "count": 73,
      "min": [
        -45,
        -53,
        -5
      ],
      "max": [
        -35,
        -50,
        5
      ],
      "type": "VEC3",
      "bufferView": 0,
      "byteOffset": 4668
    },
    {
      "name": "b_cannon_wheel_pin_001_002-Mesh_0_indices",
      "componentType": 5123,
      "count": 420,
      "min": [
        0
      ],
      "max": [
        72
      ],
      "type": "SCALAR",
      "bufferView": 1,
      "byteOffset": 4416
    },
    {
      "name": "b_cannon_support_001_-Mesh_0_positions",
      "componentType": 5126,
      "count": 8,
      "min": [
        -50,
        30,
        10
      ],
      "max": [
        0,
        40,
        60
      ],
      "type": "VEC3",
      "bufferView": 0,
      "byteOffset": 5544
    },
    {
      "name": "b_cannon_support_001_-Mesh_0_indices",
      "componentType": 5123,
      "count": 36,
      "min": [
        0
      ],
      "max": [
        7
      ],
      "type": "SCALAR",
      "bufferView": 1,
      "byteOffset": 5256
    },
    {
      "name": "b_cannon_wheel_001_-Mesh_0_positions",
      "componentType": 5126,
      "count": 73,
      "min": [
        -55,
        40,
        -15
      ],
      "max": [
        -25,
        50,
        15
      ],
      "type": "VEC3",
      "bufferView": 0,
      "byteOffset": 5640
    },
    {
      "name": "b_cannon_wheel_001_-Mesh_0_indices",
      "componentType": 5123,
      "count": 420,
      "min": [
        0
      ],
      "max": [
        72
      ],
      "type": "SCALAR",
      "bufferView": 1,
      "byteOffset": 5328
    },
    {
      "name": "b_cannon_base_001_-Mesh_0_positions",
      "componentType": 5126,
      "count": 8,
      "min": [
        -50,
        -40,
        -10
      ],
      "max": [
        50,
        40,
        10
      ],
      "type": "VEC3",
      "bufferView": 0,
      "byteOffset": 6516
    },
    {
      "name": "b_cannon_base_001_-Mesh_0_indices",
      "componentType": 5123,
      "count": 36,
      "min": [
        0
      ],
      "max": [
        7
      ],
      "type": "SCALAR",
      "bufferView": 1,
      "byteOffset": 6168
    },
    {
      "name": "b_cannon_wheel_pin_001_-Mesh_0_positions",
      "componentType": 5126,
      "count": 73,
      "min": [
        -45,
        50,
        -5
      ],
      "max": [
        -35,
        53,
        5
      ],
      "type": "VEC3",
      "bufferView": 0,
      "byteOffset": 6612
    },
    {
      "name": "b_cannon_wheel_pin_001_-Mesh_0_indices",
      "componentType": 5123,
      "count": 420,
      "min": [
        0
      ],
      "max": [
        72
      ],
      "type": "SCALAR",
      "bufferView": 1,
      "byteOffset": 6240
    }
  ],
  "asset": {
    "generator": "obj2gltf",
    "version": "2.0"
  },
  "buffers": [
    {
      "name": "cannon",
      "byteLength": 14568,
      "uri": "data:application/octet-stream;base64,"
    }
  ],
  "bufferViews": [
    {
      "name": "bufferView_0",
      "buffer": 0,
      "byteLength": 7488,
      "byteOffset": 0,
      "byteStride": 12,
      "target": 34962
    },
    {
      "name": "bufferView_1",
      "buffer": 0,
      "byteLength": 7080,
      "byteOffset": 7488,
      "target": 34963
    }
  ],
  "materials": [
    {
      "name": "color_cccccc",
      "pbrMetallicRoughness": {
        "baseColorFactor": [
          0.800000011920929,
          0.800000011920929,
          0.800000011920929,
          1
        ],
        "metallicFactor": 0,
        "roughnessFactor": 1
      },
      "emissiveFactor": [
        0,
        0,
        0
      ],
      "alphaMode": "OPAQUE",
      "doubleSided": false
    },
    {
      "name": "color_9f7754",
      "pbrMetallicRoughness": {
        "baseColorFactor": [
          0.6235294342041016,
          0.46666666865348816,
          0.3294117748737335,
          1
        ],
        "metallicFactor": 0,
        "roughnessFactor": 1
      },
      "emissiveFactor": [
        0,
        0,
        0
      ],
      "alphaMode": "OPAQUE",
      "doubleSided": false
    },
    {
      "name": "color_5d4727",
      "pbrMetallicRoughness": {
        "baseColorFactor": [
          0.364705890417099,
          0.27843138575553894,
          0.15294118225574493,
          1
        ],
        "metallicFactor": 0,
        "roughnessFactor": 1
      },
      "emissiveFactor": [
        0,
        0,
        0
      ],
      "alphaMode": "OPAQUE",
      "doubleSided": false
    },
    {
      "name": "color_a9904b",
      "pbrMetallicRoughness": {
        "baseColorFactor": [
          0.6627451181411743,
          0.5647059082984924,
          0.29411765933036804,
          1
        ],
        "metallicFactor": 0,
        "roughnessFactor": 1
      },
      "emissiveFactor": [
        0,
        0,
        0
      ],
      "alphaMode": "OPAQUE",
      "doubleSided": false
    }
  ],
  "meshes": [
    {
      "name": "b_cannon_support_pin_001_001-Mesh",
      "primitives": [
        {
          "attributes": {
            "POSITION": 0
          },
          "indices": 1,
          "material": 0,
          "mode": 4
        }
      ]
    },
    {
      "name": "b_cannon_support_pin_001_-Mesh",
      "primitives": [
        {
          "attributes": {
            "POSITION": 2
          },
          "indices": 3,
          "material": 0,
          "mode": 4
        }
      ]
    },
    {
      "name": "b_cannon_wheel_001_001-Mesh",
      "primitives": [
        {
          "attributes": {
            "POSITION": 4
          },
          "indices": 5,
          "material": 1,
          "mode": 4
        }
      ]
    },
    {
      "name": "b_cannon_wheel_001_002-Mesh",
      "primitives": [
        {
          "attributes": {
            "POSITION": 6
          },
          "indices": 7,
          "material": 1,
          "mode": 4
        }
      ]
    },
    {
      "name": "b_cannon_wheel_001_003-Mesh",
      "primitives": [
        {
          "attributes": {
            "POSITION": 8
          },
          "indices": 9,
          "material": 1,
          "mode": 4
        }
      ]
    },
    {
      "name": "b_cannon_support_001_001-Mesh",
      "primitives": [
        {
          "attributes": {
            "POSITION": 10
          },
          "indices": 11,
          "material": 2,
          "mode": 4
        }
      ]
    },
    {
      "name": "b_cannon_wheel_pin_001_001-Mesh",
      "primitives": [
        {
          "attributes": {
            "POSITION": 12
          },
          "indices": 13,
          "material": 0,
          "mode": 4
        }
      ]
    },
    {
      "name": "b_cannon_wheel_pin_001_003-Mesh",
      "primitives": [
        {
          "attributes": {
            "POSITION": 14
          },
          "indices": 15,
          "material": 0,
          "mode": 4
        }
      ]
    },
    {
      "name": "b_cannon_wheel_pin_001_002-Mesh",
      "primitives": [
        {
          "attributes": {
            "POSITION": 16
          },
          "indices": 17,
          "material": 0,
          "mode": 4
        }
      ]
    },
    {
      "name": "b_cannon_support_001_-Mesh",
      "primitives": [
        {
          "attributes": {
            "POSITION": 18
          },
          "indices": 19,
          "material": 2,
          "mode": 4
        }
      ]
    },
    {
      "name": "b_cannon_wheel_001_-Mesh",
      "primitives": [
        {
          "attributes": {
            "POSITION": 20
          },
          "indices": 21,
          "material": 1,
          "mode": 4
        }
      ]
    },
    {
      "name": "b_cannon_base_001_-Mesh",
      "primitives": [
        {
          "attributes": {
            "POSITION": 22
          },
          "indices": 23,
          "material": 3,
          "mode": 4
        }
      ]
    },
    {
      "name": "b_cannon_wheel_pin_001_-Mesh",
      "primitives": [
        {
          "attributes": {
            "POSITION": 24
          },
          "indices": 25,
          "material": 0,
          "mode": 4
        }
      ]
    }
  ],
  "nodes": [
    {
      "name": "b_cannon_support_pin_001_001",
      "mesh": 0
    },
    {
      "name": "b_cannon_support_pin_001_",
      "mesh": 1
    },
    {
      "name": "b_cannon_wheel_001_001",
      "mesh": 2
    },
    {
      "name": "b_cannon_wheel_001_002",
      "mesh": 3
    },
    {
      "name": "b_cannon_wheel_001_003",
      "mesh": 4
    },
    {
      "name": "b_cannon_support_001_001",
      "mesh": 5
    },
    {
      "name": "b_cannon_wheel_pin_001_001",
      "mesh": 6
    },
    {
      "name": "b_cannon_wheel_pin_001_003",
      "mesh": 7
    },
    {
      "name": "b_cannon_wheel_pin_001_002",
      "mesh": 8
    },
    {
      "name": "b_cannon_support_001_",
      "mesh": 9
    },
    {
      "name": "b_cannon_wheel_001_",
      "mesh": 10
    },
    {
      "name": "b_cannon_base_001_",
      "mesh": 11
    },
    {
      "name": "b_cannon_wheel_pin_001_",
      "mesh": 12
    }
  ],
  "scene": 0,
  "scenes": [
    {
      "nodes": [
        0,
        1,
        2,
        3,
        4,
        5,
        6,
        7,
        8,
        9,
        10,
        11,
        12
      ]
    }
  ]
}
