{
  "accessors": [
    {
      "name": "Body-Mesh_0_positions",
      "componentType": 5126,
      "count": 268,
      "min": [
        -35,
        -29.95600128173828,
        -29.824138641357422
      ],
      "max": [
        65,
        29.95600128173828,
        30
      ],
      "type": "VEC3",
      "bufferView": 0,
      "byteOffset": 0
    },
    {
      "name": "Body-Mesh_0_indices",
      "componentType": 5123,
      "count": 1596,
      "min": [
        0
      ],
      "max": [
        267
      ],
      "type": "SCALAR",
      "bufferView": 1,
      "byteOffset": 0
    }
  ],
  "asset": {
    "generator": "obj2gltf",
    "version": "2.0"
  },
  "buffers": [
    {
      "name": "cannon-body",
      "byteLength": 6408,
      "uri": "data:application/octet-stream;base64,"
    }
  ],
  "bufferViews": [
    {
      "name": "bufferView_0",
      "buffer": 0,
      "byteLength": 3216,
      "byteOffset": 0,
      "byteStride": 12,
      "target": 34962
    },
    {
      "name": "bufferView_1",
      "buffer": 0,
      "byteLength": 3192,
      "byteOffset": 3216,
      "target": 34963
    }
  ],
  "materials": [
    {
      "name": "color_444444",
      "pbrMetallicRoughness": {
        "baseColorFactor": [
          0.2666666805744171,
          0.2666666805744171,
          0.2666666805744171,
          1
        ],
        "metallicFactor": 0,
        "roughnessFactor": 1
      },
      "emissiveFactor": [
        0,
        0,
        0
      ],
      "alphaMode": "OPAQUE",
      "doubleSided": false
    }
  ],
  "meshes": [
    {
      "name": "Body-Mesh",
      "primitives": [
        {
          "attributes": {
            "POSITION": 0
          },
          "indices": 1,
          "material": 0,
          "mode": 4
        }
      ]
    }
  ],
  "nodes": [
    {
      "name": "Body",
      "mesh": 0
    }
  ],
  "scene": 0,
  "scenes": [
    {
      "nodes": [
        0
      ]
    }
  ]
}
