{
  "accessors": [
    {
      "name": "b_gauge_panel_001_-Mesh_0_positions",
      "componentType": 5126,
      "count": 78,
      "min": [
        -26.912446975708008,
        -26.978103637695312,
        26
      ],
      "max": [
        27,
        26.978103637695312,
        27
      ],
      "type": "VEC3",
      "bufferView": 0,
      "byteOffset": 0
    },
    {
      "name": "b_gauge_panel_001_-Mesh_0_indices",
      "componentType": 5123,
      "count": 456,
      "min": [
        0
      ],
      "max": [
        77
      ],
      "type": "SCALAR",
      "bufferView": 1,
      "byteOffset": 0
    },
    {
      "name": "b_gauge_top_001_-Mesh_0_positions",
      "componentType": 5126,
      "count": 146,
      "min": [
        -30,
        -29.97296905517578,
        20
      ],
      "max": [
        29.891925811767578,
        29.97296905517578,
        30
      ],
      "type": "VEC3",
      "bufferView": 0,
      "byteOffset": 936
    },
    {
      "name": "b_gauge_top_001_-Mesh_0_indices",
      "componentType": 5123,
      "count": 864,
      "min": [
        0
      ],
      "max": [
        145
      ],
      "type": "SCALAR",
      "bufferView": 1,
      "byteOffset": 912
    },
    {
      "name": "b_gauge_bottom_001_-Mesh_0_positions",
      "componentType": 5126,
      "count": 72,
      "min": [
        -30,
        -30,
        0
      ],
      "max": [
        30,
        30,
        20
      ],
      "type": "VEC3",
      "bufferView": 0,
      "byteOffset": 2688
    },
    {
      "name": "b_gauge_bottom_001_-Mesh_0_indices",
      "componentType": 5123,
      "count": 420,
      "min": [
        0
      ],
      "max": [
        71
      ],
      "type": "SCALAR",
      "bufferView": 1,
      "byteOffset": 2640
    },
    {
      "name": "b_gauge_tip_001_-Mesh_0_positions",
      "componentType": 5126,
      "count": 156,
      "min": [
        30,
        -3.970834970474243,
        6
      ],
      "max": [
        90,
        3.970834970474243,
        14
      ],
      "type": "VEC3",
      "bufferView": 0,
      "byteOffset": 3552
    },
    {
      "name": "b_gauge_tip_001_-Mesh_0_indices",
      "componentType": 5123,
      "count": 924,
      "min": [
        0
      ],
      "max": [
        155
      ],
      "type": "SCALAR",
      "bufferView": 1,
      "byteOffset": 3480
    }
  ],
  "asset": {
    "generator": "obj2gltf",
    "version": "2.0"
  },
  "buffers": [
    {
      "name": "gauge",
      "byteLength": 10752,
      "uri": "data:application/octet-stream;base64,"
    }
  ],
  "bufferViews": [
    {
      "name": "bufferView_0",
      "buffer": 0,
      "byteLength": 5424,
      "byteOffset": 0,
      "byteStride": 12,
      "target": 34962
    },
    {
      "name": "bufferView_1",
      "buffer": 0,
      "byteLength": 5328,
      "byteOffset": 5424,
      "target": 34963
    }
  ],
  "materials": [
    {
      "name": "color_efefef",
      "pbrMetallicRoughness": {
        "baseColorFactor": [
          0.9372549057006836,
          0.9372549057006836,
          0.9372549057006836,
          1
        ],
        "metallicFactor": 0,
        "roughnessFactor": 1
      },
      "emissiveFactor": [
        0,
        0,
        0
      ],
      "alphaMode": "OPAQUE",
      "doubleSided": false
    },
    {
      "name": "color_545454",
      "pbrMetallicRoughness": {
        "baseColorFactor": [
          0.3294117748737335,
          0.3294117748737335,
          0.3294117748737335,
          1
        ],
        "metallicFactor": 0,
        "roughnessFactor": 1
      },
      "emissiveFactor": [
        0,
        0,
        0
      ],
      "alphaMode": "OPAQUE",
      "doubleSided": false
    },
    {
      "name": "color_b2b2b2",
      "pbrMetallicRoughness": {
        "baseColorFactor": [
          0.6980392336845398,
          0.6980392336845398,
          0.6980392336845398,
          1
        ],
        "metallicFactor": 0,
        "roughnessFactor": 1
      },
      "emissiveFactor": [
        0,
        0,
        0
      ],
      "alphaMode": "OPAQUE",
      "doubleSided": false
    },
    {
      "name": "color_afafb1",
      "pbrMetallicRoughness": {
        "baseColorFactor": [
          0.686274528503418,
          0.686274528503418,
          0.6941176652908325,
          1
        ],
        "metallicFactor": 0,
        "roughnessFactor": 1
      },
      "emissiveFactor": [
        0,
        0,
        0
      ],
      "alphaMode": "OPAQUE",
      "doubleSided": false
    }
  ],
  "meshes": [
    {
      "name": "b_gauge_panel_001_-Mesh",
      "primitives": [
        {
          "attributes": {
            "POSITION": 0
          },
          "indices": 1,
          "material": 0,
          "mode": 4
        }
      ]
    },
    {
      "name": "b_gauge_top_001_-Mesh",
      "primitives": [
        {
          "attributes": {
            "POSITION": 2
          },
          "indices": 3,
          "material": 1,
          "mode": 4
        }
      ]
    },
    {
      "name": "b_gauge_bottom_001_-Mesh",
      "primitives": [
        {
          "attributes": {
            "POSITION": 4
          },
          "indices": 5,
          "material": 2,
          "mode": 4
        }
      ]
    },
    {
      "name": "b_gauge_tip_001_-Mesh",
      "primitives": [
        {
          "attributes": {
            "POSITION": 6
          },
          "indices": 7,
          "material": 3,
          "mode": 4
        }
      ]
    }
  ],
  "nodes": [
    {
      "name": "b_gauge_panel_001_",
      "mesh": 0
    },
    {
      "name": "b_gauge_top_001_",
      "mesh": 1
    },
    {
      "name": "b_gauge_bottom_001_",
      "mesh": 2
    },
    {
      "name": "b_gauge_tip_001_",
      "mesh": 3
    }
  ],
  "scene": 0,
  "scenes": [
    {
      "nodes": [
        0,
        1,
        2,
        3
      ]
    }
  ]
}
