{
  "accessors": [
    {
      "name": "b_heater_rod_support_001_001-Mesh_0_positions",
      "componentType": 5126,
      "count": 757,
      "min": [
        -8,
        -87.9416732788086,
        3
      ],
      "max": [
        8,
        -72.0583267211914,
        46
      ],
      "type": "VEC3",
      "bufferView": 0,
      "byteOffset": 0
    },
    {
      "name": "b_heater_rod_support_001_001-Mesh_0_indices",
      "componentType": 5123,
      "count": 4518,
      "min": [
        0
      ],
      "max": [
        756
      ],
      "type": "SCALAR",
      "bufferView": 1,
      "byteOffset": 0
    },
    {
      "name": "b_heater_tube_support_screw_001_-Mesh_0_positions",
      "componentType": 5126,
      "count": 72,
      "min": [
        -2.5,
        62.5,
        21.5
      ],
      "max": [
        2.5,
        67.5,
        23.5
      ],
      "type": "VEC3",
      "bufferView": 0,
      "byteOffset": 9084
    },
    {
      "name": "b_heater_tube_support_screw_001_-Mesh_0_indices",
      "componentType": 5123,
      "count": 420,
      "min": [
        0
      ],
      "max": [
        71
      ],
      "type": "SCALAR",
      "bufferView": 1,
      "byteOffset": 9036
    },
    {
      "name": "b_heater_base_001_-Mesh_0_positions",
      "componentType": 5126,
      "count": 8,
      "min": [
        -75,
        -260,
        0
      ],
      "max": [
        75,
        140,
        3
      ],
      "type": "VEC3",
      "bufferView": 0,
      "byteOffset": 9948
    },
    {
      "name": "b_heater_base_001_-Mesh_0_indices",
      "componentType": 5123,
      "count": 36,
      "min": [
        0
      ],
      "max": [
        7
      ],
      "type": "SCALAR",
      "bufferView": 1,
      "byteOffset": 9876
    },
    {
      "name": "b_heater_tube_support_001_001-Mesh_0_positions",
      "componentType": 5126,
      "count": 52,
      "min": [
        -2.5,
        -67.48177337646484,
        3
      ],
      "max": [
        2.5,
        -62.518226623535156,
        18.5
      ],
      "type": "VEC3",
      "bufferView": 0,
      "byteOffset": 10044
    },
    {
      "name": "b_heater_tube_support_001_001-Mesh_0_indices",
      "componentType": 5123,
      "count": 300,
      "min": [
        0
      ],
      "max": [
        51
      ],
      "type": "SCALAR",
      "bufferView": 1,
      "byteOffset": 9948
    },
    {
      "name": "b_heater_tube_001_-Mesh_0_positions",
      "componentType": 5126,
      "count": 136,
      "min": [
        -7.5,
        -70,
        12.554682731628418
      ],
      "max": [
        7.5,
        70,
        27.45193099975586
      ],
      "type": "VEC3",
      "bufferView": 0,
      "byteOffset": 10668
    },
    {
      "name": "b_heater_tube_001_-Mesh_0_indices",
      "componentType": 5123,
      "count": 804,
      "min": [
        0
      ],
      "max": [
        135
      ],
      "type": "SCALAR",
      "bufferView": 1,
      "byteOffset": 10548
    },
    {
      "name": "b_heater_tube_support_001_-Mesh_0_positions",
      "componentType": 5126,
      "count": 52,
      "min": [
        -2.5,
        62.518226623535156,
        3
      ],
      "max": [
        2.5,
        67.48177337646484,
        18.5
      ],
      "type": "VEC3",
      "bufferView": 0,
      "byteOffset": 12300
    },
    {
      "name": "b_heater_tube_support_001_-Mesh_0_indices",
      "componentType": 5123,
      "count": 300,
      "min": [
        0
      ],
      "max": [
        51
      ],
      "type": "SCALAR",
      "bufferView": 1,
      "byteOffset": 12156
    },
    {
      "name": "b_heater_tube_support_screw_001_001-Mesh_0_positions",
      "componentType": 5126,
      "count": 72,
      "min": [
        -2.5,
        -67.5,
        21.5
      ],
      "max": [
        2.5,
        -62.5,
        23.5
      ],
      "type": "VEC3",
      "bufferView": 0,
      "byteOffset": 12924
    },
    {
      "name": "b_heater_tube_support_screw_001_001-Mesh_0_indices",
      "componentType": 5123,
      "count": 420,
      "min": [
        0
      ],
      "max": [
        71
      ],
      "type": "SCALAR",
      "bufferView": 1,
      "byteOffset": 12756
    },
    {
      "name": "b_heater_rod_support_001_-Mesh_0_positions",
      "componentType": 5126,
      "count": 757,
      "min": [
        -8,
        72.0583267211914,
        3
      ],
      "max": [
        8,
        87.9416732788086,
        46
      ],
      "type": "VEC3",
      "bufferView": 0,
      "byteOffset": 13788
    },
    {
      "name": "b_heater_rod_support_001_-Mesh_0_indices",
      "componentType": 5123,
      "count": 4518,
      "min": [
        0
      ],
      "max": [
        756
      ],
      "type": "SCALAR",
      "bufferView": 1,
      "byteOffset": 13596
    }
  ],
  "asset": {
    "generator": "obj2gltf",
    "version": "2.0"
  },
  "buffers": [
    {
      "name": "heater",
      "byteLength": 45504,
      "uri": "data:application/octet-stream;base64,"
    }
  ],
  "bufferViews": [
    {
      "name": "bufferView_0",
      "buffer": 0,
      "byteLength": 22872,
      "byteOffset": 0,
      "byteStride": 12,
      "target": 34962
    },
    {
      "name": "bufferView_1",
      "buffer": 0,
      "byteLength": 22632,
      "byteOffset": 22872,
      "target": 34963
    }
  ],
  "materials": [
    {
      "name": "color_cdb06a",
      "pbrMetallicRoughness": {
        "baseColorFactor": [
          0.8039215803146362,
          0.6901960968971252,
          0.4156862795352936,
          1
        ],
        "metallicFactor": 0,
        "roughnessFactor": 1
      },
      "emissiveFactor": [
        0,
        0,
        0
      ],
      "alphaMode": "OPAQUE",
      "doubleSided": false
    },
    {
      "name": "color_545454",
      "pbrMetallicRoughness": {
        "baseColorFactor": [
          0.3294117748737335,
          0.3294117748737335,
          0.3294117748737335,
          1
        ],
        "metallicFactor": 0,
        "roughnessFactor": 1
      },
      "emissiveFactor": [
        0,
        0,
        0
      ],
      "alphaMode": "OPAQUE",
      "doubleSided": false
    },
    {
      "name": "color_afafb1",
      "pbrMetallicRoughness": {
        "baseColorFactor": [
          0.686274528503418,
          0.686274528503418,
          0.6941176652908325,
          1
        ],
        "metallicFactor": 0,
        "roughnessFactor": 1
      },
      "emissiveFactor": [
        0,
        0,
        0
      ],
      "alphaMode": "OPAQUE",
      "doubleSided": false
    }
  ],
  "meshes": [
    {
      "name": "b_heater_rod_support_001_001-Mesh",
      "primitives": [
        {
          "attributes": {
            "POSITION": 0
          },
          "indices": 1,
          "material": 0,
          "mode": 4
        }
      ]
    },
    {
      "name": "b_heater_tube_support_screw_001_-Mesh",
      "primitives": [
        {
          "attributes": {
            "POSITION": 2
          },
          "indices": 3,
          "material": 1,
          "mode": 4
        }
      ]
    },
    {
      "name": "b_heater_base_001_-Mesh",
      "primitives": [
        {
          "attributes": {
            "POSITION": 4
          },
          "indices": 5,
          "material": 1,
          "mode": 4
        }
      ]
    },
    {
      "name": "b_heater_tube_support_001_001-Mesh",
      "primitives": [
        {
          "attributes": {
            "POSITION": 6
          },
          "indices": 7,
          "material": 0,
          "mode": 4
        }
      ]
    },
    {
      "name": "b_heater_tube_001_-Mesh",
      "primitives": [
        {
          "attributes": {
            "POSITION": 8
          },
          "indices": 9,
          "material": 2,
          "mode": 4
        }
      ]
    },
    {
      "name": "b_heater_tube_support_001_-Mesh",
      "primitives": [
        {
          "attributes": {
            "POSITION": 10
          },
          "indices": 11,
          "material": 0,
          "mode": 4
        }
      ]
    },
    {
      "name": "b_heater_tube_support_screw_001_001-Mesh",
      "primitives": [
        {
          "attributes": {
            "POSITION": 12
          },
          "indices": 13,
          "material": 1,
          "mode": 4
        }
      ]
    },
    {
      "name": "b_heater_rod_support_001_-Mesh",
      "primitives": [
        {
          "attributes": {
            "POSITION": 14
          },
          "indices": 15,
          "material": 0,
          "mode": 4
        }
      ]
    }
  ],
  "nodes": [
    {
      "name": "b_heater_rod_support_001_001",
      "mesh": 0
    },
    {
      "name": "b_heater_tube_support_screw_001_",
      "mesh": 1
    },
    {
      "name": "b_heater_base_001_",
      "mesh": 2
    },
    {
      "name": "b_heater_tube_support_001_001",
      "mesh": 3
    },
    {
      "name": "b_heater_tube_001_",
      "mesh": 4
    },
    {
      "name": "b_heater_tube_support_001_",
      "mesh": 5
    },
    {
      "name": "b_heater_tube_support_screw_001_001",
      "mesh": 6
    },
    {
      "name": "b_heater_rod_support_001_",
      "mesh": 7
    }
  ],
  "scene": 0,
  "scenes": [
    {
      "nodes": [
        0,
        1,
        2,
        3,
        4,
        5,
        6,
        7
      ]
    }
  ]
}
