{
  "accessors": [
    {
      "name": "b_dyn_hook_small_001_-Mesh_0_positions",
      "componentType": 5126,
      "count": 650,
      "min": [
        -5.998901844024658,
        -0.9927089810371399,
        -32
      ],
      "max": [
        5.499091148376465,
        0.9927089810371399,
        -14.000569343566895
      ],
      "type": "VEC3",
      "bufferView": 0,
      "byteOffset": 0
    },
    {
      "name": "b_dyn_hook_small_001_-Mesh_0_indices",
      "componentType": 5123,
      "count": 3888,
      "min": [
        0
      ],
      "max": [
        649
      ],
      "type": "SCALAR",
      "bufferView": 1,
      "byteOffset": 0
    },
    {
      "name": "b_dyn_hook_001_-Mesh_0_positions",
      "componentType": 5126,
      "count": 598,
      "min": [
        -0.9927089810371399,
        -5.991744041442871,
        -17.989974975585938
      ],
      "max": [
        0.9927089810371399,
        5.499091148376465,
        95
      ],
      "type": "VEC3",
      "bufferView": 0,
      "byteOffset": 7800
    },
    {
      "name": "b_dyn_hook_001_-Mesh_0_indices",
      "componentType": 5123,
      "count": 3576,
      "min": [
        0
      ],
      "max": [
        597
      ],
      "type": "SCALAR",
      "bufferView": 1,
      "byteOffset": 7776
    },
    {
      "name": "b_dyn_body_001_-Mesh_0_positions",
      "componentType": 5126,
      "count": 20,
      "min": [
        -25,
        -7.5,
        0
      ],
      "max": [
        25,
        7.5,
        120
      ],
      "type": "VEC3",
      "bufferView": 0,
      "byteOffset": 14976
    },
    {
      "name": "b_dyn_body_001_-Mesh_0_indices",
      "componentType": 5123,
      "count": 84,
      "min": [
        0
      ],
      "max": [
        19
      ],
      "type": "SCALAR",
      "bufferView": 1,
      "byteOffset": 14928
    },
    {
      "name": "b_dyn_indicator_001_-Mesh_0_positions",
      "componentType": 5126,
      "count": 10,
      "min": [
        -15.5,
        -6.5,
        93.5
      ],
      "max": [
        -2.5,
        -4.5,
        96.5
      ],
      "type": "VEC3",
      "bufferView": 0,
      "byteOffset": 15216
    },
    {
      "name": "b_dyn_indicator_001_-Mesh_0_indices",
      "componentType": 5123,
      "count": 48,
      "min": [
        0
      ],
      "max": [
        9
      ],
      "type": "SCALAR",
      "bufferView": 1,
      "byteOffset": 15096
    }
  ],
  "asset": {
    "generator": "obj2gltf",
    "version": "2.0"
  },
  "buffers": [
    {
      "name": "dynamometer",
      "byteLength": 30528,
      "uri": "data:application/octet-stream;base64,"
    }
  ],
  "bufferViews": [
    {
      "name": "bufferView_0",
      "buffer": 0,
      "byteLength": 15336,
      "byteOffset": 0,
      "byteStride": 12,
      "target": 34962
    },
    {
      "name": "bufferView_1",
      "buffer": 0,
      "byteLength": 15192,
      "byteOffset": 15336,
      "target": 34963
    }
  ],
  "materials": [
    {
      "name": "color_cccccc",
      "pbrMetallicRoughness": {
        "baseColorFactor": [
          0.800000011920929,
          0.800000011920929,
          0.800000011920929,
          1
        ],
        "metallicFactor": 0,
        "roughnessFactor": 1
      },
      "emissiveFactor": [
        0,
        0,
        0
      ],
      "alphaMode": "OPAQUE",
      "doubleSided": false
    },
    {
      "name": "color_cc181b",
      "pbrMetallicRoughness": {
        "baseColorFactor": [
          0.800000011920929,
          0.0941176488995552,
          0.10588235408067703,
          1
        ],
        "metallicFactor": 0,
        "roughnessFactor": 1
      },
      "emissiveFactor": [
        0,
        0,
        0
      ],
      "alphaMode": "OPAQUE",
      "doubleSided": false
    }
  ],
  "meshes": [
    {
      "name": "b_dyn_hook_small_001_-Mesh",
      "primitives": [
        {
          "attributes": {
            "POSITION": 0
          },
          "indices": 1,
          "material": 0,
          "mode": 4
        }
      ]
    },
    {
      "name": "b_dyn_hook_001_-Mesh",
      "primitives": [
        {
          "attributes": {
            "POSITION": 2
          },
          "indices": 3,
          "material": 0,
          "mode": 4
        }
      ]
    },
    {
      "name": "b_dyn_body_001_-Mesh",
      "primitives": [
        {
          "attributes": {
            "POSITION": 4
          },
          "indices": 5,
          "material": 0,
          "mode": 4
        }
      ]
    },
    {
      "name": "b_dyn_indicator_001_-Mesh",
      "primitives": [
        {
          "attributes": {
            "POSITION": 6
          },
          "indices": 7,
          "material": 1,
          "mode": 4
        }
      ]
    }
  ],
  "nodes": [
    {
      "name": "b_dyn_hook_small_001_",
      "mesh": 0
    },
    {
      "name": "b_dyn_hook_001_",
      "mesh": 1
    },
    {
      "name": "b_dyn_body_001_",
      "mesh": 2
    },
    {
      "name": "b_dyn_indicator_001_",
      "mesh": 3
    }
  ],
  "scene": 0,
  "scenes": [
    {
      "nodes": [
        0,
        1,
        2,
        3
      ]
    }
  ]
}
