{
  "accessors": [
    {
      "name": "b_gripper_vertical_rod_001_-Mesh_0_positions",
      "componentType": 5126,
      "count": 52,
      "min": [
        -2.5,
        47.518226623535156,
        0
      ],
      "max": [
        2.5,
        52.481773376464844,
        500
      ],
      "type": "VEC3",
      "bufferView": 0,
      "byteOffset": 0
    },
    {
      "name": "b_gripper_vertical_rod_001_-Mesh_0_indices",
      "componentType": 5123,
      "count": 300,
      "min": [
        0
      ],
      "max": [
        51
      ],
      "type": "SCALAR",
      "bufferView": 1,
      "byteOffset": 0
    },
    {
      "name": "b_gripper_arm_001_-Mesh_0_positions",
      "componentType": 5126,
      "count": 12,
      "min": [
        -30,
        -5,
        0
      ],
      "max": [
        -15,
        5,
        30
      ],
      "type": "VEC3",
      "bufferView": 0,
      "byteOffset": 624
    },
    {
      "name": "b_gripper_arm_001_-Mesh_0_indices",
      "componentType": 5123,
      "count": 36,
      "min": [
        0
      ],
      "max": [
        11
      ],
      "type": "SCALAR",
      "bufferView": 1,
      "byteOffset": 600
    },
    {
      "name": "b_gripper_arm_001_001-Mesh_0_positions",
      "componentType": 5126,
      "count": 13,
      "min": [
        15,
        -5,
        0
      ],
      "max": [
        30,
        5,
        30
      ],
      "type": "VEC3",
      "bufferView": 0,
      "byteOffset": 768
    },
    {
      "name": "b_gripper_arm_001_001-Mesh_0_indices",
      "componentType": 5123,
      "count": 36,
      "min": [
        0
      ],
      "max": [
        12
      ],
      "type": "SCALAR",
      "bufferView": 1,
      "byteOffset": 672
    },
    {
      "name": "b_gripper_body_001_-Mesh_0_positions",
      "componentType": 5126,
      "count": 10,
      "min": [
        -37.5,
        -15,
        30
      ],
      "max": [
        37.5,
        15,
        50
      ],
      "type": "VEC3",
      "bufferView": 0,
      "byteOffset": 924
    },
    {
      "name": "b_gripper_body_001_-Mesh_0_indices",
      "componentType": 5123,
      "count": 36,
      "min": [
        0
      ],
      "max": [
        9
      ],
      "type": "SCALAR",
      "bufferView": 1,
      "byteOffset": 744
    },
    {
      "name": "b_gripper_base_001_-Mesh_0_positions",
      "componentType": 5126,
      "count": 8,
      "min": [
        -100,
        -100,
        -3
      ],
      "max": [
        100,
        100,
        0
      ],
      "type": "VEC3",
      "bufferView": 0,
      "byteOffset": 1044
    },
    {
      "name": "b_gripper_base_001_-Mesh_0_indices",
      "componentType": 5123,
      "count": 36,
      "min": [
        0
      ],
      "max": [
        7
      ],
      "type": "SCALAR",
      "bufferView": 1,
      "byteOffset": 816
    },
    {
      "name": "b_gripper_horizonal_rod_001_-Mesh_0_positions",
      "componentType": 5126,
      "count": 60,
      "min": [
        -2.5,
        15,
        37.518226623535156
      ],
      "max": [
        2.5,
        37.5,
        42.481773376464844
      ],
      "type": "VEC3",
      "bufferView": 0,
      "byteOffset": 1140
    },
    {
      "name": "b_gripper_horizonal_rod_001_-Mesh_0_indices",
      "componentType": 5123,
      "count": 300,
      "min": [
        0
      ],
      "max": [
        59
      ],
      "type": "SCALAR",
      "bufferView": 1,
      "byteOffset": 888
    },
    {
      "name": "b_gripper_connector_block_001_-Mesh_0_positions",
      "componentType": 5126,
      "count": 8,
      "min": [
        -12.5,
        37.5,
        27.5
      ],
      "max": [
        12.5,
        62.5,
        52.5
      ],
      "type": "VEC3",
      "bufferView": 0,
      "byteOffset": 1860
    },
    {
      "name": "b_gripper_connector_block_001_-Mesh_0_indices",
      "componentType": 5123,
      "count": 36,
      "min": [
        0
      ],
      "max": [
        7
      ],
      "type": "SCALAR",
      "bufferView": 1,
      "byteOffset": 1488
    }
  ],
  "asset": {
    "generator": "obj2gltf",
    "version": "2.0"
  },
  "buffers": [
    {
      "name": "gripper",
      "byteLength": 3516,
      "uri": "data:application/octet-stream;base64,"
    }
  ],
  "bufferViews": [
    {
      "name": "bufferView_0",
      "buffer": 0,
      "byteLength": 1956,
      "byteOffset": 0,
      "byteStride": 12,
      "target": 34962
    },
    {
      "name": "bufferView_1",
      "buffer": 0,
      "byteLength": 1560,
      "byteOffset": 1956,
      "target": 34963
    }
  ],
  "materials": [
    {
      "name": "color_cccccc",
      "pbrMetallicRoughness": {
        "baseColorFactor": [
          0.800000011920929,
          0.800000011920929,
          0.800000011920929,
          1
        ],
        "metallicFactor": 0,
        "roughnessFactor": 1
      },
      "emissiveFactor": [
        0,
        0,
        0
      ],
      "alphaMode": "OPAQUE",
      "doubleSided": false
    },
    {
      "name": "color_999999",
      "pbrMetallicRoughness": {
        "baseColorFactor": [
          0.6000000238418579,
          0.6000000238418579,
          0.6000000238418579,
          1
        ],
        "metallicFactor": 0,
        "roughnessFactor": 1
      },
      "emissiveFactor": [
        0,
        0,
        0
      ],
      "alphaMode": "OPAQUE",
      "doubleSided": false
    },
    {
      "name": "color_265ad4",
      "pbrMetallicRoughness": {
        "baseColorFactor": [
          0.14901961386203766,
          0.3529411852359772,
          0.8313725590705872,
          1
        ],
        "metallicFactor": 0,
        "roughnessFactor": 1
      },
      "emissiveFactor": [
        0,
        0,
        0
      ],
      "alphaMode": "OPAQUE",
      "doubleSided": false
    },
    {
      "name": "color_545454",
      "pbrMetallicRoughness": {
        "baseColorFactor": [
          0.3294117748737335,
          0.3294117748737335,
          0.3294117748737335,
          1
        ],
        "metallicFactor": 0,
        "roughnessFactor": 1
      },
      "emissiveFactor": [
        0,
        0,
        0
      ],
      "alphaMode": "OPAQUE",
      "doubleSided": false
    }
  ],
  "meshes": [
    {
      "name": "b_gripper_vertical_rod_001_-Mesh",
      "primitives": [
        {
          "attributes": {
            "POSITION": 0
          },
          "indices": 1,
          "material": 0,
          "mode": 4
        }
      ]
    },
    {
      "name": "b_gripper_arm_001_-Mesh",
      "primitives": [
        {
          "attributes": {
            "POSITION": 2
          },
          "indices": 3,
          "material": 1,
          "mode": 4
        }
      ]
    },
    {
      "name": "b_gripper_arm_001_001-Mesh",
      "primitives": [
        {
          "attributes": {
            "POSITION": 4
          },
          "indices": 5,
          "material": 1,
          "mode": 4
        }
      ]
    },
    {
      "name": "b_gripper_body_001_-Mesh",
      "primitives": [
        {
          "attributes": {
            "POSITION": 6
          },
          "indices": 7,
          "material": 2,
          "mode": 4
        }
      ]
    },
    {
      "name": "b_gripper_base_001_-Mesh",
      "primitives": [
        {
          "attributes": {
            "POSITION": 8
          },
          "indices": 9,
          "material": 3,
          "mode": 4
        }
      ]
    },
    {
      "name": "b_gripper_horizonal_rod_001_-Mesh",
      "primitives": [
        {
          "attributes": {
            "POSITION": 10
          },
          "indices": 11,
          "material": 0,
          "mode": 4
        }
      ]
    },
    {
      "name": "b_gripper_connector_block_001_-Mesh",
      "primitives": [
        {
          "attributes": {
            "POSITION": 12
          },
          "indices": 13,
          "material": 2,
          "mode": 4
        }
      ]
    }
  ],
  "nodes": [
    {
      "name": "b_gripper_vertical_rod_001_",
      "mesh": 0
    },
    {
      "name": "b_gripper_arm_001_",
      "mesh": 1
    },
    {
      "name": "b_gripper_arm_001_001",
      "mesh": 2
    },
    {
      "name": "b_gripper_body_001_",
      "mesh": 3
    },
    {
      "name": "b_gripper_base_001_",
      "mesh": 4
    },
    {
      "name": "b_gripper_horizonal_rod_001_",
      "mesh": 5
    },
    {
      "name": "b_gripper_connector_block_001_",
      "mesh": 6
    }
  ],
  "scene": 0,
  "scenes": [
    {
      "nodes": [
        0,
        1,
        2,
        3,
        4,
        5,
        6
      ]
    }
  ]
}
