{
  "accessors": [
    {
      "name": "Body-Mesh_0_positions",
      "componentType": 5126,
      "count": 40,
      "min": [
        -38,
        0,
        -4.771027088165283
      ],
      "max": [
        38,
        20,
        5.228972911834717
      ],
      "type": "VEC3",
      "bufferView": 0,
      "byteOffset": 0
    },
    {
      "name": "Body-Mesh_0_indices",
      "componentType": 5123,
      "count": 228,
      "min": [
        0
      ],
      "max": [
        39
      ],
      "type": "SCALAR",
      "bufferView": 1,
      "byteOffset": 0
    }
  ],
  "asset": {
    "generator": "obj2gltf",
    "version": "2.0"
  },
  "buffers": [
    {
      "name": "stopper",
      "byteLength": 936,
      "uri": "data:application/octet-stream;base64,"
    }
  ],
  "bufferViews": [
    {
      "name": "bufferView_0",
      "buffer": 0,
      "byteLength": 480,
      "byteOffset": 0,
      "byteStride": 12,
      "target": 34962
    },
    {
      "name": "bufferView_1",
      "buffer": 0,
      "byteLength": 456,
      "byteOffset": 480,
      "target": 34963
    }
  ],
  "materials": [
    {
      "name": "color_757575",
      "pbrMetallicRoughness": {
        "baseColorFactor": [
          0.4588235318660736,
          0.4588235318660736,
          0.4588235318660736,
          1
        ],
        "metallicFactor": 0,
        "roughnessFactor": 1
      },
      "emissiveFactor": [
        0,
        0,
        0
      ],
      "alphaMode": "OPAQUE",
      "doubleSided": false
    }
  ],
  "meshes": [
    {
      "name": "Body-Mesh",
      "primitives": [
        {
          "attributes": {
            "POSITION": 0
          },
          "indices": 1,
          "material": 0,
          "mode": 4
        }
      ]
    }
  ],
  "nodes": [
    {
      "name": "Body",
      "mesh": 0
    }
  ],
  "scene": 0,
  "scenes": [
    {
      "nodes": [
        0
      ]
    }
  ]
}
