{
  "accessors": [
    {
      "name": "b_sensor_metal_detector_001_001-Mesh_0_positions",
      "componentType": 5126,
      "count": 128,
      "min": [
        -12,
        14.009060859680176,
        5.036224842071533
      ],
      "max": [
        0,
        29.990938186645508,
        21
      ],
      "type": "VEC3",
      "bufferView": 0,
      "byteOffset": 0
    },
    {
      "name": "b_sensor_metal_detector_001_001-Mesh_0_indices",
      "componentType": 5123,
      "count": 756,
      "min": [
        0
      ],
      "max": [
        127
      ],
      "type": "SCALAR",
      "bufferView": 1,
      "byteOffset": 0
    },
    {
      "name": "b_sensor_metal_detector_001_-Mesh_0_positions",
      "componentType": 5126,
      "count": 141,
      "min": [
        -12,
        14.009060859680176,
        -20.963775634765625
      ],
      "max": [
        0,
        29.990938186645508,
        -5
      ],
      "type": "VEC3",
      "bufferView": 0,
      "byteOffset": 1536
    },
    {
      "name": "b_sensor_metal_detector_001_-Mesh_0_indices",
      "componentType": 5123,
      "count": 756,
      "min": [
        0
      ],
      "max": [
        140
      ],
      "type": "SCALAR",
      "bufferView": 1,
      "byteOffset": 1512
    },
    {
      "name": "b_sensor_cover_001_001-Mesh_0_positions",
      "componentType": 5126,
      "count": 84,
      "min": [
        -10.5,
        15.005677223205566,
        -19.9773006439209
      ],
      "max": [
        -10,
        28.99432373046875,
        -6
      ],
      "type": "VEC3",
      "bufferView": 0,
      "byteOffset": 3228
    },
    {
      "name": "b_sensor_cover_001_001-Mesh_0_indices",
      "componentType": 5123,
      "count": 456,
      "min": [
        0
      ],
      "max": [
        83
      ],
      "type": "SCALAR",
      "bufferView": 1,
      "byteOffset": 3024
    },
    {
      "name": "b_sensor_body_001_-Mesh_0_positions",
      "componentType": 5126,
      "count": 16,
      "min": [
        0,
        -6,
        -28
      ],
      "max": [
        40,
        42,
        28
      ],
      "type": "VEC3",
      "bufferView": 0,
      "byteOffset": 4236
    },
    {
      "name": "b_sensor_body_001_-Mesh_0_indices",
      "componentType": 5123,
      "count": 84,
      "min": [
        0
      ],
      "max": [
        15
      ],
      "type": "SCALAR",
      "bufferView": 1,
      "byteOffset": 3936
    },
    {
      "name": "b_sensor_cover_001_-Mesh_0_positions",
      "componentType": 5126,
      "count": 78,
      "min": [
        -10.5,
        15.005677223205566,
        6.022698879241943
      ],
      "max": [
        -10,
        28.99432373046875,
        20
      ],
      "type": "VEC3",
      "bufferView": 0,
      "byteOffset": 4428
    },
    {
      "name": "b_sensor_cover_001_-Mesh_0_indices",
      "componentType": 5123,
      "count": 456,
      "min": [
        0
      ],
      "max": [
        77
      ],
      "type": "SCALAR",
      "bufferView": 1,
      "byteOffset": 4104
    }
  ],
  "asset": {
    "generator": "obj2gltf",
    "version": "2.0"
  },
  "buffers": [
    {
      "name": "sensor",
      "byteLength": 10380,
      "uri": "data:application/octet-stream;base64,"
    }
  ],
  "bufferViews": [
    {
      "name": "bufferView_0",
      "buffer": 0,
      "byteLength": 5364,
      "byteOffset": 0,
      "byteStride": 12,
      "target": 34962
    },
    {
      "name": "bufferView_1",
      "buffer": 0,
      "byteLength": 5016,
      "byteOffset": 5364,
      "target": 34963
    }
  ],
  "materials": [
    {
      "name": "color_cccccc",
      "pbrMetallicRoughness": {
        "baseColorFactor": [
          0.800000011920929,
          0.800000011920929,
          0.800000011920929,
          1
        ],
        "metallicFactor": 0,
        "roughnessFactor": 1
      },
      "emissiveFactor": [
        0,
        0,
        0
      ],
      "alphaMode": "OPAQUE",
      "doubleSided": false
    },
    {
      "name": "color_242424",
      "pbrMetallicRoughness": {
        "baseColorFactor": [
          0.1411764770746231,
          0.1411764770746231,
          0.1411764770746231,
          1
        ],
        "metallicFactor": 0,
        "roughnessFactor": 1
      },
      "emissiveFactor": [
        0,
        0,
        0
      ],
      "alphaMode": "OPAQUE",
      "doubleSided": false
    },
    {
      "name": "color_4d79e1",
      "pbrMetallicRoughness": {
        "baseColorFactor": [
          0.3019607961177826,
          0.4745098054409027,
          0.8823529481887817,
          1
        ],
        "metallicFactor": 0,
        "roughnessFactor": 1
      },
      "emissiveFactor": [
        0,
        0,
        0
      ],
      "alphaMode": "OPAQUE",
      "doubleSided": false
    }
  ],
  "meshes": [
    {
      "name": "b_sensor_metal_detector_001_001-Mesh",
      "primitives": [
        {
          "attributes": {
            "POSITION": 0
          },
          "indices": 1,
          "material": 0,
          "mode": 4
        }
      ]
    },
    {
      "name": "b_sensor_metal_detector_001_-Mesh",
      "primitives": [
        {
          "attributes": {
            "POSITION": 2
          },
          "indices": 3,
          "material": 0,
          "mode": 4
        }
      ]
    },
    {
      "name": "b_sensor_cover_001_001-Mesh",
      "primitives": [
        {
          "attributes": {
            "POSITION": 4
          },
          "indices": 5,
          "material": 1,
          "mode": 4
        }
      ]
    },
    {
      "name": "b_sensor_body_001_-Mesh",
      "primitives": [
        {
          "attributes": {
            "POSITION": 6
          },
          "indices": 7,
          "material": 2,
          "mode": 4
        }
      ]
    },
    {
      "name": "b_sensor_cover_001_-Mesh",
      "primitives": [
        {
          "attributes": {
            "POSITION": 8
          },
          "indices": 9,
          "material": 1,
          "mode": 4
        }
      ]
    }
  ],
  "nodes": [
    {
      "name": "b_sensor_metal_detector_001_001",
      "mesh": 0
    },
    {
      "name": "b_sensor_metal_detector_001_",
      "mesh": 1
    },
    {
      "name": "b_sensor_cover_001_001",
      "mesh": 2
    },
    {
      "name": "b_sensor_body_001_",
      "mesh": 3
    },
    {
      "name": "b_sensor_cover_001_",
      "mesh": 4
    }
  ],
  "scene": 0,
  "scenes": [
    {
      "nodes": [
        0,
        1,
        2,
        3,
        4
      ]
    }
  ]
}
