{
  "accessors": [
    {
      "name": "b_sensor_body_001_-Mesh_0_positions",
      "componentType": 5126,
      "count": 120,
      "min": [
        0,
        -6,
        -28
      ],
      "max": [
        40,
        42,
        28
      ],
      "type": "VEC3",
      "bufferView": 0,
      "byteOffset": 0
    },
    {
      "name": "b_sensor_body_001_-Mesh_0_indices",
      "componentType": 5123,
      "count": 708,
      "min": [
        0
      ],
      "max": [
        119
      ],
      "type": "SCALAR",
      "bufferView": 1,
      "byteOffset": 0
    },
    {
      "name": "b_sensor_cover_001_001-Mesh_0_positions",
      "componentType": 5126,
      "count": 117,
      "min": [
        -8.5,
        15.00568962097168,
        -21.76848793029785
      ],
      "max": [
        -8,
        28.994335174560547,
        -7.7911858558654785
      ],
      "type": "VEC3",
      "bufferView": 0,
      "byteOffset": 1440
    },
    {
      "name": "b_sensor_cover_001_001-Mesh_0_indices",
      "componentType": 5123,
      "count": 456,
      "min": [
        0
      ],
      "max": [
        116
      ],
      "type": "SCALAR",
      "bufferView": 1,
      "byteOffset": 1416
    },
    {
      "name": "b_sensor_cover_001_-Mesh_0_positions",
      "componentType": 5126,
      "count": 80,
      "min": [
        -8.5,
        15.005677223205566,
        4.231512069702148
      ],
      "max": [
        -8,
        28.99432373046875,
        18.208812713623047
      ],
      "type": "VEC3",
      "bufferView": 0,
      "byteOffset": 2844
    },
    {
      "name": "b_sensor_cover_001_-Mesh_0_indices",
      "componentType": 5123,
      "count": 456,
      "min": [
        0
      ],
      "max": [
        79
      ],
      "type": "SCALAR",
      "bufferView": 1,
      "byteOffset": 2328
    },
    {
      "name": "b_sensor_metal_detector_001_001-Mesh_0_positions",
      "componentType": 5126,
      "count": 437,
      "min": [
        -11,
        14,
        3.208812952041626
      ],
      "max": [
        1,
        30,
        19.208812713623047
      ],
      "type": "VEC3",
      "bufferView": 0,
      "byteOffset": 3804
    },
    {
      "name": "b_sensor_metal_detector_001_001-Mesh_0_indices",
      "componentType": 5123,
      "count": 2610,
      "min": [
        0
      ],
      "max": [
        436
      ],
      "type": "SCALAR",
      "bufferView": 1,
      "byteOffset": 3240
    },
    {
      "name": "b_sensor_metal_detector_001_-Mesh_0_positions",
      "componentType": 5126,
      "count": 451,
      "min": [
        -11,
        14,
        -22.791187286376953
      ],
      "max": [
        1,
        30,
        -6.791186809539795
      ],
      "type": "VEC3",
      "bufferView": 0,
      "byteOffset": 9048
    },
    {
      "name": "b_sensor_metal_detector_001_-Mesh_0_indices",
      "componentType": 5123,
      "count": 2610,
      "min": [
        0
      ],
      "max": [
        450
      ],
      "type": "SCALAR",
      "bufferView": 1,
      "byteOffset": 8460
    }
  ],
  "asset": {
    "generator": "obj2gltf",
    "version": "2.0"
  },
  "buffers": [
    {
      "name": "sensor",
      "byteLength": 28140,
      "uri": "data:application/octet-stream;base64,"
    }
  ],
  "bufferViews": [
    {
      "name": "bufferView_0",
      "buffer": 0,
      "byteLength": 14460,
      "byteOffset": 0,
      "byteStride": 12,
      "target": 34962
    },
    {
      "name": "bufferView_1",
      "buffer": 0,
      "byteLength": 13680,
      "byteOffset": 14460,
      "target": 34963
    }
  ],
  "materials": [
    {
      "name": "color_c5aecc",
      "pbrMetallicRoughness": {
        "baseColorFactor": [
          0.772549033164978,
          0.6823529601097107,
          0.800000011920929,
          1
        ],
        "metallicFactor": 0,
        "roughnessFactor": 1
      },
      "emissiveFactor": [
        0,
        0,
        0
      ],
      "alphaMode": "OPAQUE",
      "doubleSided": false
    },
    {
      "name": "color_242424",
      "pbrMetallicRoughness": {
        "baseColorFactor": [
          0.1411764770746231,
          0.1411764770746231,
          0.1411764770746231,
          1
        ],
        "metallicFactor": 0,
        "roughnessFactor": 1
      },
      "emissiveFactor": [
        0,
        0,
        0
      ],
      "alphaMode": "OPAQUE",
      "doubleSided": false
    },
    {
      "name": "color_cccccc",
      "pbrMetallicRoughness": {
        "baseColorFactor": [
          0.800000011920929,
          0.800000011920929,
          0.800000011920929,
          1
        ],
        "metallicFactor": 0,
        "roughnessFactor": 1
      },
      "emissiveFactor": [
        0,
        0,
        0
      ],
      "alphaMode": "OPAQUE",
      "doubleSided": false
    }
  ],
  "meshes": [
    {
      "name": "b_sensor_body_001_-Mesh",
      "primitives": [
        {
          "attributes": {
            "POSITION": 0
          },
          "indices": 1,
          "material": 0,
          "mode": 4
        }
      ]
    },
    {
      "name": "b_sensor_cover_001_001-Mesh",
      "primitives": [
        {
          "attributes": {
            "POSITION": 2
          },
          "indices": 3,
          "material": 1,
          "mode": 4
        }
      ]
    },
    {
      "name": "b_sensor_cover_001_-Mesh",
      "primitives": [
        {
          "attributes": {
            "POSITION": 4
          },
          "indices": 5,
          "material": 1,
          "mode": 4
        }
      ]
    },
    {
      "name": "b_sensor_metal_detector_001_001-Mesh",
      "primitives": [
        {
          "attributes": {
            "POSITION": 6
          },
          "indices": 7,
          "material": 2,
          "mode": 4
        }
      ]
    },
    {
      "name": "b_sensor_metal_detector_001_-Mesh",
      "primitives": [
        {
          "attributes": {
            "POSITION": 8
          },
          "indices": 9,
          "material": 2,
          "mode": 4
        }
      ]
    }
  ],
  "nodes": [
    {
      "name": "b_sensor_body_001_",
      "mesh": 0
    },
    {
      "name": "b_sensor_cover_001_001",
      "mesh": 1
    },
    {
      "name": "b_sensor_cover_001_",
      "mesh": 2
    },
    {
      "name": "b_sensor_metal_detector_001_001",
      "mesh": 3
    },
    {
      "name": "b_sensor_metal_detector_001_",
      "mesh": 4
    }
  ],
  "scene": 0,
  "scenes": [
    {
      "nodes": [
        0,
        1,
        2,
        3,
        4
      ]
    }
  ]
}
